<svg id="kity_svg_6" xmlns="http://www.w3.org/2000/svg" xmlns:xlink="http://www.w3.org/1999/xlink" version="1.1" width="942" height="1000" style="background: rgb(251, 251, 251); visibility: visible;" viewBox="0 0 942 1000"><defs id="kity_defs_7"><linearGradient id="kity_linearGradient_17" x1="0" y1="0" x2="0" y2="1"><stop id="kity_stop_18" offset="0" stop-color="rgb(255, 255, 255)"></stop><stop id="kity_stop_19" offset="1" stop-color="rgb(204, 204, 204)"></stop></linearGradient><marker id="kity_marker_2" orient="auto" refX="6" refY="0" viewBox="-7 -7 14 14" markerWidth="7" markerHeight="7" markerUnits="userSpaceOnUse"><path id="kity_path_3" fill="rgb(115, 161, 191)" stroke="none" d="M6,0A6,6,0,1,1,-6,0A6,6,0,1,1,6,0"></path></marker></defs><g id="kity_g_8"><g id="minder1" text-rendering="optimize-speed"><g id="minder_connect_group1"><path id="kity_path_31" fill="none" stroke="rgb(115, 191, 118)" stroke-width="1" d="M412.5,48.5v10h-313V66.5"></path><path id="kity_path_33" fill="none" stroke="rgb(115, 191, 118)" stroke-width="1" d="M40.5,92.5V113.5L48.5,113.5"></path><path id="kity_path_35" fill="none" stroke="rgb(115, 191, 118)" stroke-width="1" d="M68.5,122.5V139.5L76.5,139.5"></path><path id="kity_path_37" fill="none" stroke="rgb(115, 191, 118)" stroke-width="1" d="M68.5,122.5V165.5L76.5,165.5"></path><path id="kity_path_39" fill="none" stroke="rgb(115, 191, 118)" stroke-width="1" d="M40.5,92.5V191.5L48.5,191.5"></path><path id="kity_path_41" fill="none" stroke="rgb(115, 191, 118)" stroke-width="1" d="M68.5,200.5V217.5L76.5,217.5"></path><path id="kity_path_43" fill="none" stroke="rgb(115, 191, 118)" stroke-width="1" d="M68.5,200.5V243.5L76.5,243.5"></path><path id="kity_path_45" fill="none" stroke="rgb(115, 191, 118)" stroke-width="1" d="M68.5,200.5V269.5L76.5,269.5"></path><path id="kity_path_47" fill="none" stroke="rgb(115, 191, 118)" stroke-width="1" d="M68.5,200.5V295.5L76.5,295.5"></path><path id="kity_path_49" fill="none" stroke="rgb(115, 191, 118)" stroke-width="1" d="M68.5,200.5V321.5L76.5,321.5"></path><path id="kity_path_51" fill="none" stroke="rgb(115, 191, 118)" stroke-width="1" d="M40.5,92.5V347.5L48.5,347.5"></path><path id="kity_path_53" fill="none" stroke="rgb(115, 191, 118)" stroke-width="1" d="M68.5,356.5V373.5L76.5,373.5"></path><path id="kity_path_55" fill="none" stroke="rgb(115, 191, 118)" stroke-width="1" d="M68.5,356.5V399.5L76.5,399.5"></path><path id="kity_path_57" fill="none" stroke="rgb(115, 191, 118)" stroke-width="1" d="M68.5,356.5V425.5L76.5,425.5"></path><path id="kity_path_59" fill="none" stroke="rgb(115, 191, 118)" stroke-width="1" d="M68.5,356.5V451.5L76.5,451.5"></path><path id="kity_path_61" fill="none" stroke="rgb(115, 191, 118)" stroke-width="1" d="M412.5,48.5v10h-34V66.5"></path><path id="kity_path_63" fill="none" stroke="rgb(115, 191, 118)" stroke-width="1" d="M326.5,92.5V113.5L334.5,113.5"></path><path id="kity_path_65" fill="none" stroke="rgb(115, 191, 118)" stroke-width="1" d="M354.5,122.5V139.5L362.5,139.5"></path><path id="kity_path_67" fill="none" stroke="rgb(115, 191, 118)" stroke-width="1" d="M382.5,148.5V165.5L390.5,165.5"></path><path id="kity_path_69" fill="none" stroke="rgb(115, 191, 118)" stroke-width="1" d="M382.5,148.5V191.5L390.5,191.5"></path><path id="kity_path_71" fill="none" stroke="rgb(115, 191, 118)" stroke-width="1" d="M382.5,148.5V217.5L390.5,217.5"></path><path id="kity_path_73" fill="none" stroke="rgb(115, 191, 118)" stroke-width="1" d="M354.5,122.5V243.5L362.5,243.5"></path><path id="kity_path_75" fill="none" stroke="rgb(115, 191, 118)" stroke-width="1" d="M382.5,252.5V269.5L390.5,269.5"></path><path id="kity_path_77" fill="none" stroke="rgb(115, 191, 118)" stroke-width="1" d="M382.5,252.5V295.5L390.5,295.5"></path><path id="kity_path_79" fill="none" stroke="rgb(115, 191, 118)" stroke-width="1" d="M382.5,252.5V321.5L390.5,321.5"></path><path id="kity_path_81" fill="none" stroke="rgb(115, 191, 118)" stroke-width="1" d="M354.5,122.5V347.5L362.5,347.5"></path><path id="kity_path_83" fill="none" stroke="rgb(115, 191, 118)" stroke-width="1" d="M382.5,356.5V373.5L390.5,373.5"></path><path id="kity_path_85" fill="none" stroke="rgb(115, 191, 118)" stroke-width="1" d="M382.5,356.5V399.5L390.5,399.5"></path><path id="kity_path_87" fill="none" stroke="rgb(115, 191, 118)" stroke-width="1" d="M382.5,356.5V425.5L390.5,425.5"></path><path id="kity_path_89" fill="none" stroke="rgb(115, 191, 118)" stroke-width="1" d="M382.5,356.5V451.5L390.5,451.5"></path><path id="kity_path_91" fill="none" stroke="rgb(115, 191, 118)" stroke-width="1" d="M326.5,92.5V477.5L334.5,477.5"></path><path id="kity_path_93" fill="none" stroke="rgb(115, 191, 118)" stroke-width="1" d="M354.5,486.5V503.5L362.5,503.5"></path><path id="kity_path_95" fill="none" stroke="rgb(115, 191, 118)" stroke-width="1" d="M382.5,512.5V529.5L390.5,529.5"></path><path id="kity_path_97" fill="none" stroke="rgb(115, 191, 118)" stroke-width="1" d="M382.5,512.5V555.5L390.5,555.5"></path><path id="kity_path_99" fill="none" stroke="rgb(115, 191, 118)" stroke-width="1" d="M382.5,512.5V581.5L390.5,581.5"></path><path id="kity_path_101" fill="none" stroke="rgb(115, 191, 118)" stroke-width="1" d="M382.5,512.5V607.5L390.5,607.5"></path><path id="kity_path_103" fill="none" stroke="rgb(115, 191, 118)" stroke-width="1" d="M382.5,512.5V633.5L390.5,633.5"></path><path id="kity_path_105" fill="none" stroke="rgb(115, 191, 118)" stroke-width="1" d="M326.5,92.5V659.5L334.5,659.5"></path><path id="kity_path_107" fill="none" stroke="rgb(115, 191, 118)" stroke-width="1" d="M354.5,668.5V685.5L362.5,685.5"></path><path id="kity_path_109" fill="none" stroke="rgb(115, 191, 118)" stroke-width="1" d="M354.5,668.5V711.5L362.5,711.5"></path><path id="kity_path_111" fill="none" stroke="rgb(115, 191, 118)" stroke-width="1" d="M354.5,668.5V737.5L362.5,737.5"></path><path id="kity_path_113" fill="none" stroke="rgb(115, 191, 118)" stroke-width="1" d="M354.5,668.5V763.5L362.5,763.5"></path><path id="kity_path_115" fill="none" stroke="rgb(115, 191, 118)" stroke-width="1" d="M326.5,92.5V789.5L334.5,789.5"></path><path id="kity_path_117" fill="none" stroke="rgb(115, 191, 118)" stroke-width="1" d="M354.5,798.5V815.5L362.5,815.5"></path><path id="kity_path_119" fill="none" stroke="rgb(115, 191, 118)" stroke-width="1" d="M382.5,824.5V841.5L390.5,841.5"></path><path id="kity_path_121" fill="none" stroke="rgb(115, 191, 118)" stroke-width="1" d="M382.5,824.5V867.5L390.5,867.5"></path><path id="kity_path_123" fill="none" stroke="rgb(115, 191, 118)" stroke-width="1" d="M354.5,798.5V893.5L362.5,893.5"></path><path id="kity_path_125" fill="none" stroke="rgb(115, 191, 118)" stroke-width="1" d="M382.5,902.5V919.5L390.5,919.5"></path><path id="kity_path_127" fill="none" stroke="rgb(115, 191, 118)" stroke-width="1" d="M382.5,902.5V945.5L390.5,945.5"></path><path id="kity_path_129" fill="none" stroke="rgb(115, 191, 118)" stroke-width="1" d="M326.5,92.5V971.5L334.5,971.5"></path><path id="kity_path_131" fill="none" stroke="rgb(115, 191, 118)" stroke-width="1" d="M412.5,48.5v10h304V66.5"></path><path id="kity_path_133" fill="none" stroke="rgb(115, 191, 118)" stroke-width="1" d="M648.5,92.5V113.5L656.5,113.5"></path><path id="kity_path_135" fill="none" stroke="rgb(115, 191, 118)" stroke-width="1" d="M676.5,122.5V139.5L684.5,139.5"></path><path id="kity_path_137" fill="none" stroke="rgb(115, 191, 118)" stroke-width="1" d="M676.5,122.5V165.5L684.5,165.5"></path><path id="kity_path_139" fill="none" stroke="rgb(115, 191, 118)" stroke-width="1" d="M676.5,122.5V191.5L684.5,191.5"></path><path id="kity_path_141" fill="none" stroke="rgb(115, 191, 118)" stroke-width="1" d="M676.5,122.5V217.5L684.5,217.5"></path><path id="kity_path_143" fill="none" stroke="rgb(115, 191, 118)" stroke-width="1" d="M676.5,122.5V243.5L684.5,243.5"></path><path id="kity_path_145" fill="none" stroke="rgb(115, 191, 118)" stroke-width="1" d="M648.5,92.5V269.5L656.5,269.5"></path><path id="kity_path_147" fill="none" stroke="rgb(115, 191, 118)" stroke-width="1" d="M676.5,278.5V295.5L684.5,295.5"></path><path id="kity_path_149" fill="none" stroke="rgb(115, 191, 118)" stroke-width="1" d="M676.5,278.5V321.5L684.5,321.5"></path><path id="kity_path_151" fill="none" stroke="rgb(115, 191, 118)" stroke-width="1" d="M676.5,278.5V347.5L684.5,347.5"></path><path id="kity_path_153" fill="none" stroke="rgb(115, 191, 118)" stroke-width="1" d="M648.5,92.5V373.5L656.5,373.5"></path><path id="kity_path_155" fill="none" stroke="rgb(115, 191, 118)" stroke-width="1" d="M676.5,382.5V399.5L684.5,399.5"></path><path id="kity_path_157" fill="none" stroke="rgb(115, 191, 118)" stroke-width="1" d="M676.5,382.5V425.5L684.5,425.5"></path><path id="kity_path_159" fill="none" stroke="rgb(115, 191, 118)" stroke-width="1" d="M676.5,382.5V451.5L684.5,451.5"></path><path id="kity_path_161" fill="none" stroke="rgb(115, 191, 118)" stroke-width="1" d="M676.5,382.5V477.5L684.5,477.5"></path><path id="kity_path_163" fill="none" stroke="rgb(115, 191, 118)" stroke-width="1" d="M676.5,382.5V503.5L684.5,503.5"></path></g><g id="minder_node1"><path id="node_outline1" fill="rgb(115, 191, 118)" stroke="rgb(57, 96, 58)" d="M318.5,20.5h187a5,5,0,0,1,5,5v18a5,5,0,0,1,-5,5h-187a5,5,0,0,1,-5,-5v-18a5,5,0,0,1,5,-5z" stroke-width="3"></path><g id="node_text1" fill="white"><text id="kity_text_22" text-rendering="inherit" font-size="16" dy=".8em" y="26.5" x="325.5">2.软件开发过程及其组织</text></g></g><g id="kity_g_12"><path id="kity_path_13" fill="none" stroke="none" d="M325.5,34.5h0v0h0z"></path></g><g id="kity_g_14"><path id="kity_path_15" fill="none" stroke="none" d="M325.5,34.5h0v0h0z"></path><path id="kity_path_16" fill="none" stroke="none"></path></g><g id="minder_node2"><g id="node_expander15" style="cursor: pointer;"><path id="kity_path_408" fill="white" stroke="gray" d="M105,59.5A6,6,0,1,1,93,59.5A6,6,0,1,1,105,59.5"></path><path id="kity_path_409" fill="none" stroke="gray" d="M94.5,59.5L103.5,59.5"></path></g><path id="node_outline16" fill="rgb(238, 246, 238)" stroke="rgb(115, 191, 118)" d="M23.5,66.5h151a3,3,0,0,1,3,3v20a3,3,0,0,1,-3,3h-151a3,3,0,0,1,-3,-3v-20a3,3,0,0,1,3,-3z" stroke-width="1"></path><g id="node_text16" fill="black"><text id="kity_text_193" text-rendering="inherit" font-size="14" dy=".8em" y="72.5" x="40.5">2.1软件开发的困难</text></g></g><g id="minder_node3"><g id="node_expander3" style="cursor: pointer;"><path id="kity_path_372" fill="white" stroke="gray" d="M48.5,113.5A6,6,0,1,1,36.5,113.5A6,6,0,1,1,48.5,113.5"></path><path id="kity_path_373" fill="none" stroke="gray" d="M38,113.5L47,113.5"></path></g><path id="node_outline4" fill="none" stroke="none" d="M53.5,104.5h48a5,5,0,0,1,5,5v8a5,5,0,0,1,-5,5h-48a5,5,0,0,1,-5,-5v-8a5,5,0,0,1,5,-5z"></path><g id="node_text4" fill="black"><text id="kity_text_169" text-rendering="inherit" font-size="12" dy=".8em" y="107.5" x="53.5">基本问题</text></g></g><g id="minder_node4"><g id="node_expander1" display="none" style="cursor: pointer;"><path id="kity_path_366" fill="white" stroke="gray" d="M76.5,139.5A6,6,0,1,1,64.5,139.5A6,6,0,1,1,76.5,139.5"></path><path id="kity_path_367" fill="none" stroke="gray"></path></g><path id="node_outline2" fill="none" stroke="none" d="M81.5,130.5h139a5,5,0,0,1,5,5v8a5,5,0,0,1,-5,5h-139a5,5,0,0,1,-5,-5v-8a5,5,0,0,1,5,-5z"></path><g id="node_text2" fill="black"><text id="kity_text_165" text-rendering="inherit" font-size="12" dy=".8em" y="133.5" x="81.5">用户理解——&gt;程序员理解</text></g></g><g id="minder_node5"><g id="node_expander2" display="none" style="cursor: pointer;"><path id="kity_path_369" fill="white" stroke="gray" d="M76.5,165.5A6,6,0,1,1,64.5,165.5A6,6,0,1,1,76.5,165.5"></path><path id="kity_path_370" fill="none" stroke="gray"></path></g><path id="node_outline3" fill="none" stroke="none" d="M81.5,156.5h139a5,5,0,0,1,5,5v8a5,5,0,0,1,-5,5h-139a5,5,0,0,1,-5,-5v-8a5,5,0,0,1,5,-5z"></path><g id="node_text3" fill="black"><text id="kity_text_167" text-rendering="inherit" font-size="12" dy=".8em" y="159.5" x="81.5">程序员理解——&gt;程序实现</text></g></g><g id="minder_node6"><g id="node_expander9" style="cursor: pointer;"><path id="kity_path_390" fill="white" stroke="gray" d="M48.5,191.5A6,6,0,1,1,36.5,191.5A6,6,0,1,1,48.5,191.5"></path><path id="kity_path_391" fill="none" stroke="gray" d="M38,191.5L47,191.5"></path></g><path id="node_outline10" fill="none" stroke="none" d="M53.5,182.5h24a5,5,0,0,1,5,5v8a5,5,0,0,1,-5,5h-24a5,5,0,0,1,-5,-5v-8a5,5,0,0,1,5,-5z"></path><g id="node_text10" fill="black"><text id="kity_text_181" text-rendering="inherit" font-size="12" dy=".8em" y="185.5" x="53.5">困难</text></g></g><g id="minder_node7"><g id="node_expander4" display="none" style="cursor: pointer;"><path id="kity_path_375" fill="white" stroke="gray" d="M76.5,217.5A6,6,0,1,1,64.5,217.5A6,6,0,1,1,76.5,217.5"></path><path id="kity_path_376" fill="none" stroke="gray"></path></g><path id="node_outline5" fill="none" stroke="none" d="M81.5,208.5h84a5,5,0,0,1,5,5v8a5,5,0,0,1,-5,5h-84a5,5,0,0,1,-5,-5v-8a5,5,0,0,1,5,-5z"></path><g id="node_text5" fill="black"><text id="kity_text_171" text-rendering="inherit" font-size="12" dy=".8em" y="211.5" x="81.5">一致性保持困难</text></g></g><g id="minder_node8"><g id="node_expander5" display="none" style="cursor: pointer;"><path id="kity_path_378" fill="white" stroke="gray" d="M76.5,243.5A6,6,0,1,1,64.5,243.5A6,6,0,1,1,76.5,243.5"></path><path id="kity_path_379" fill="none" stroke="gray"></path></g><path id="node_outline6" fill="none" stroke="none" d="M81.5,234.5h48a5,5,0,0,1,5,5v8a5,5,0,0,1,-5,5h-48a5,5,0,0,1,-5,-5v-8a5,5,0,0,1,5,-5z"></path><g id="node_text6" fill="black"><text id="kity_text_173" text-rendering="inherit" font-size="12" dy=".8em" y="237.5" x="81.5">测试困难</text></g></g><g id="minder_node9"><g id="node_expander6" display="none" style="cursor: pointer;"><path id="kity_path_381" fill="white" stroke="gray" d="M76.5,269.5A6,6,0,1,1,64.5,269.5A6,6,0,1,1,76.5,269.5"></path><path id="kity_path_382" fill="none" stroke="gray"></path></g><path id="node_outline7" fill="none" stroke="none" d="M81.5,260.5h108a5,5,0,0,1,5,5v8a5,5,0,0,1,-5,5h-108a5,5,0,0,1,-5,-5v-8a5,5,0,0,1,5,-5z"></path><g id="node_text7" fill="black"><text id="kity_text_175" text-rendering="inherit" font-size="12" dy=".8em" y="263.5" x="81.5">代码与文档协调困难</text></g></g><g id="minder_node10"><g id="node_expander7" display="none" style="cursor: pointer;"><path id="kity_path_384" fill="white" stroke="gray" d="M76.5,295.5A6,6,0,1,1,64.5,295.5A6,6,0,1,1,76.5,295.5"></path><path id="kity_path_385" fill="none" stroke="gray"></path></g><path id="node_outline8" fill="none" stroke="none" d="M81.5,286.5h72a5,5,0,0,1,5,5v8a5,5,0,0,1,-5,5h-72a5,5,0,0,1,-5,-5v-8a5,5,0,0,1,5,-5z"></path><g id="node_text8" fill="black"><text id="kity_text_177" text-rendering="inherit" font-size="12" dy=".8em" y="289.5" x="81.5">进程保持困难</text></g></g><g id="minder_node11"><g id="node_expander8" display="none" style="cursor: pointer;"><path id="kity_path_387" fill="white" stroke="gray" d="M76.5,321.5A6,6,0,1,1,64.5,321.5A6,6,0,1,1,76.5,321.5"></path><path id="kity_path_388" fill="none" stroke="gray"></path></g><path id="node_outline9" fill="none" stroke="none" d="M81.5,312.5h72a5,5,0,0,1,5,5v8a5,5,0,0,1,-5,5h-72a5,5,0,0,1,-5,-5v-8a5,5,0,0,1,5,-5z"></path><g id="node_text9" fill="black"><text id="kity_text_179" text-rendering="inherit" font-size="12" dy=".8em" y="315.5" x="81.5">版本更新困难</text></g></g><g id="minder_node12"><g id="node_expander14" style="cursor: pointer;"><path id="kity_path_405" fill="white" stroke="gray" d="M48.5,347.5A6,6,0,1,1,36.5,347.5A6,6,0,1,1,48.5,347.5"></path><path id="kity_path_406" fill="none" stroke="gray" d="M38,347.5L47,347.5"></path></g><path id="node_outline15" fill="none" stroke="none" d="M53.5,338.5h24a5,5,0,0,1,5,5v8a5,5,0,0,1,-5,5h-24a5,5,0,0,1,-5,-5v-8a5,5,0,0,1,5,-5z"></path><g id="node_text15" fill="black"><text id="kity_text_191" text-rendering="inherit" font-size="12" dy=".8em" y="341.5" x="53.5">原因</text></g></g><g id="minder_node13"><g id="node_expander10" display="none" style="cursor: pointer;"><path id="kity_path_393" fill="white" stroke="gray" d="M76.5,373.5A6,6,0,1,1,64.5,373.5A6,6,0,1,1,76.5,373.5"></path><path id="kity_path_394" fill="none" stroke="gray"></path></g><path id="node_outline11" fill="none" stroke="none" d="M81.5,364.5h84a5,5,0,0,1,5,5v8a5,5,0,0,1,-5,5h-84a5,5,0,0,1,-5,-5v-8a5,5,0,0,1,5,-5z"></path><g id="node_text11" fill="black"><text id="kity_text_183" text-rendering="inherit" font-size="12" dy=".8em" y="367.5" x="81.5">根本原因复杂性</text></g></g><g id="minder_node14"><g id="node_expander11" display="none" style="cursor: pointer;"><path id="kity_path_396" fill="white" stroke="gray" d="M76.5,399.5A6,6,0,1,1,64.5,399.5A6,6,0,1,1,76.5,399.5"></path><path id="kity_path_397" fill="none" stroke="gray"></path></g><path id="node_outline12" fill="none" stroke="none" d="M81.5,390.5h168a5,5,0,0,1,5,5v8a5,5,0,0,1,-5,5h-168a5,5,0,0,1,-5,-5v-8a5,5,0,0,1,5,-5z"></path><g id="node_text12" fill="black"><text id="kity_text_185" text-rendering="inherit" font-size="12" dy=".8em" y="393.5" x="81.5">具有主动性个人之间的协调困难</text></g></g><g id="minder_node15"><g id="node_expander12" display="none" style="cursor: pointer;"><path id="kity_path_399" fill="white" stroke="gray" d="M76.5,425.5A6,6,0,1,1,64.5,425.5A6,6,0,1,1,76.5,425.5"></path><path id="kity_path_400" fill="none" stroke="gray"></path></g><path id="node_outline13" fill="none" stroke="none" d="M81.5,416.5h84a5,5,0,0,1,5,5v8a5,5,0,0,1,-5,5h-84a5,5,0,0,1,-5,-5v-8a5,5,0,0,1,5,-5z"></path><g id="node_text13" fill="black"><text id="kity_text_187" text-rendering="inherit" font-size="12" dy=".8em" y="419.5" x="81.5">不同领域差别大</text></g></g><g id="minder_node16"><g id="node_expander13" display="none" style="cursor: pointer;"><path id="kity_path_402" fill="white" stroke="gray" d="M76.5,451.5A6,6,0,1,1,64.5,451.5A6,6,0,1,1,76.5,451.5"></path><path id="kity_path_403" fill="none" stroke="gray"></path></g><path id="node_outline14" fill="none" stroke="none" d="M81.5,442.5h204a5,5,0,0,1,5,5v8a5,5,0,0,1,-5,5h-204a5,5,0,0,1,-5,-5v-8a5,5,0,0,1,5,-5z"></path><g id="node_text14" fill="black"><text id="kity_text_189" text-rendering="inherit" font-size="12" dy=".8em" y="445.5" x="81.5">需求变化、软件硬件变化等不确定因素</text></g></g><g id="minder_node17"><g id="node_expander50" style="cursor: pointer;"><path id="kity_path_513" fill="white" stroke="gray" d="M384,59.5A6,6,0,1,1,372,59.5A6,6,0,1,1,384,59.5"></path><path id="kity_path_514" fill="none" stroke="gray" d="M373.5,59.5L382.5,59.5"></path></g><path id="node_outline51" fill="rgb(238, 246, 238)" stroke="rgb(115, 191, 118)" d="M309.5,66.5h137a3,3,0,0,1,3,3v20a3,3,0,0,1,-3,3h-137a3,3,0,0,1,-3,-3v-20a3,3,0,0,1,3,-3z" stroke-width="1"></path><g id="node_text51" fill="black"><text id="kity_text_263" text-rendering="inherit" font-size="14" dy=".8em" y="72.5" x="326.5">2.2开发方法发展</text></g></g><g id="minder_node18"><g id="node_expander29" style="cursor: pointer;"><path id="kity_path_450" fill="white" stroke="gray" d="M334.5,113.5A6,6,0,1,1,322.5,113.5A6,6,0,1,1,334.5,113.5"></path><path id="kity_path_451" fill="none" stroke="gray" d="M324,113.5L333,113.5"></path></g><path id="node_outline30" fill="none" stroke="none" d="M339.5,104.5h36a5,5,0,0,1,5,5v8a5,5,0,0,1,-5,5h-36a5,5,0,0,1,-5,-5v-8a5,5,0,0,1,5,-5z"></path><g id="node_text30" fill="black"><text id="kity_text_221" text-rendering="inherit" font-size="12" dy=".8em" y="107.5" x="339.5">结构化</text></g></g><g id="minder_node19"><g id="node_expander19" style="cursor: pointer;"><path id="kity_path_420" fill="white" stroke="gray" d="M362.5,139.5A6,6,0,1,1,350.5,139.5A6,6,0,1,1,362.5,139.5"></path><path id="kity_path_421" fill="none" stroke="gray" d="M352,139.5L361,139.5"></path></g><path id="node_outline20" fill="none" stroke="none" d="M367.5,130.5h48a5,5,0,0,1,5,5v8a5,5,0,0,1,-5,5h-48a5,5,0,0,1,-5,-5v-8a5,5,0,0,1,5,-5z"></path><g id="node_text20" fill="black"><text id="kity_text_201" text-rendering="inherit" font-size="12" dy=".8em" y="133.5" x="367.5">三种模块</text></g></g><g id="minder_node20"><g id="node_expander16" display="none" style="cursor: pointer;"><path id="kity_path_411" fill="white" stroke="gray" d="M390.5,165.5A6,6,0,1,1,378.5,165.5A6,6,0,1,1,390.5,165.5"></path><path id="kity_path_412" fill="none" stroke="gray"></path></g><path id="node_outline17" fill="none" stroke="none" d="M395.5,156.5h72a5,5,0,0,1,5,5v8a5,5,0,0,1,-5,5h-72a5,5,0,0,1,-5,-5v-8a5,5,0,0,1,5,-5z"></path><g id="node_text17" fill="black"><text id="kity_text_195" text-rendering="inherit" font-size="12" dy=".8em" y="159.5" x="395.5">二分决策机制</text></g></g><g id="minder_node21"><g id="node_expander17" display="none" style="cursor: pointer;"><path id="kity_path_414" fill="white" stroke="gray" d="M390.5,191.5A6,6,0,1,1,378.5,191.5A6,6,0,1,1,390.5,191.5"></path><path id="kity_path_415" fill="none" stroke="gray"></path></g><path id="node_outline18" fill="none" stroke="none" d="M395.5,182.5h48a5,5,0,0,1,5,5v8a5,5,0,0,1,-5,5h-48a5,5,0,0,1,-5,-5v-8a5,5,0,0,1,5,-5z"></path><g id="node_text18" fill="black"><text id="kity_text_197" text-rendering="inherit" font-size="12" dy=".8em" y="185.5" x="395.5">处理单元</text></g></g><g id="minder_node22"><g id="node_expander18" display="none" style="cursor: pointer;"><path id="kity_path_417" fill="white" stroke="gray" d="M390.5,217.5A6,6,0,1,1,378.5,217.5A6,6,0,1,1,390.5,217.5"></path><path id="kity_path_418" fill="none" stroke="gray"></path></g><path id="node_outline19" fill="none" stroke="none" d="M395.5,208.5h48a5,5,0,0,1,5,5v8a5,5,0,0,1,-5,5h-48a5,5,0,0,1,-5,-5v-8a5,5,0,0,1,5,-5z"></path><g id="node_text19" fill="black"><text id="kity_text_199" text-rendering="inherit" font-size="12" dy=".8em" y="211.5" x="395.5">循环机制</text></g></g><g id="minder_node23"><g id="node_expander23" style="cursor: pointer;"><path id="kity_path_432" fill="white" stroke="gray" d="M362.5,243.5A6,6,0,1,1,350.5,243.5A6,6,0,1,1,362.5,243.5"></path><path id="kity_path_433" fill="none" stroke="gray" d="M352,243.5L361,243.5"></path></g><path id="node_outline24" fill="none" stroke="none" d="M367.5,234.5h48a5,5,0,0,1,5,5v8a5,5,0,0,1,-5,5h-48a5,5,0,0,1,-5,-5v-8a5,5,0,0,1,5,-5z"></path><g id="node_text24" fill="black"><text id="kity_text_209" text-rendering="inherit" font-size="12" dy=".8em" y="237.5" x="367.5">模块原则</text></g></g><g id="minder_node24"><g id="node_expander20" display="none" style="cursor: pointer;"><path id="kity_path_423" fill="white" stroke="gray" d="M390.5,269.5A6,6,0,1,1,378.5,269.5A6,6,0,1,1,390.5,269.5"></path><path id="kity_path_424" fill="none" stroke="gray"></path></g><path id="node_outline21" fill="none" stroke="none" d="M395.5,260.5h96a5,5,0,0,1,5,5v8a5,5,0,0,1,-5,5h-96a5,5,0,0,1,-5,-5v-8a5,5,0,0,1,5,-5z"></path><g id="node_text21" fill="black"><text id="kity_text_203" text-rendering="inherit" font-size="12" dy=".8em" y="263.5" x="395.5">足够小，易于测试</text></g></g><g id="minder_node25"><g id="node_expander21" display="none" style="cursor: pointer;"><path id="kity_path_426" fill="white" stroke="gray" d="M390.5,295.5A6,6,0,1,1,378.5,295.5A6,6,0,1,1,390.5,295.5"></path><path id="kity_path_427" fill="none" stroke="gray"></path></g><path id="node_outline22" fill="none" stroke="none" d="M395.5,286.5h48a5,5,0,0,1,5,5v8a5,5,0,0,1,-5,5h-48a5,5,0,0,1,-5,-5v-8a5,5,0,0,1,5,-5z"></path><g id="node_text22" fill="black"><text id="kity_text_205" text-rendering="inherit" font-size="12" dy=".8em" y="289.5" x="395.5">功能单一</text></g></g><g id="minder_node26"><g id="node_expander22" display="none" style="cursor: pointer;"><path id="kity_path_429" fill="white" stroke="gray" d="M390.5,321.5A6,6,0,1,1,378.5,321.5A6,6,0,1,1,390.5,321.5"></path><path id="kity_path_430" fill="none" stroke="gray"></path></g><path id="node_outline23" fill="none" stroke="none" d="M395.5,312.5h120a5,5,0,0,1,5,5v8a5,5,0,0,1,-5,5h-120a5,5,0,0,1,-5,-5v-8a5,5,0,0,1,5,-5z"></path><g id="node_text23" fill="black"><text id="kity_text_207" text-rendering="inherit" font-size="12" dy=".8em" y="315.5" x="395.5">模块间相互联系影响小</text></g></g><g id="minder_node27"><g id="node_expander28" style="cursor: pointer;"><path id="kity_path_447" fill="white" stroke="gray" d="M362.5,347.5A6,6,0,1,1,350.5,347.5A6,6,0,1,1,362.5,347.5"></path><path id="kity_path_448" fill="none" stroke="gray" d="M352,347.5L361,347.5"></path></g><path id="node_outline29" fill="none" stroke="none" d="M367.5,338.5h24a5,5,0,0,1,5,5v8a5,5,0,0,1,-5,5h-24a5,5,0,0,1,-5,-5v-8a5,5,0,0,1,5,-5z"></path><g id="node_text29" fill="black"><text id="kity_text_219" text-rendering="inherit" font-size="12" dy=".8em" y="341.5" x="367.5">内容</text></g></g><g id="minder_node28"><g id="node_expander24" display="none" style="cursor: pointer;"><path id="kity_path_435" fill="white" stroke="gray" d="M390.5,373.5A6,6,0,1,1,378.5,373.5A6,6,0,1,1,390.5,373.5"></path><path id="kity_path_436" fill="none" stroke="gray"></path></g><path id="node_outline25" fill="none" stroke="none" d="M395.5,364.5h52a5,5,0,0,1,5,5v8a5,5,0,0,1,-5,5h-52a5,5,0,0,1,-5,-5v-8a5,5,0,0,1,5,-5z"></path><g id="node_text25" fill="black"><text id="kity_text_211" text-rendering="inherit" font-size="12" dy=".8em" y="367.5" x="395.5">限制goto</text></g></g><g id="minder_node29"><g id="node_expander25" display="none" style="cursor: pointer;"><path id="kity_path_438" fill="white" stroke="gray" d="M390.5,399.5A6,6,0,1,1,378.5,399.5A6,6,0,1,1,390.5,399.5"></path><path id="kity_path_439" fill="none" stroke="gray"></path></g><path id="node_outline26" fill="none" stroke="none" d="M395.5,390.5h132a5,5,0,0,1,5,5v8a5,5,0,0,1,-5,5h-132a5,5,0,0,1,-5,-5v-8a5,5,0,0,1,5,-5z"></path><g id="node_text26" fill="black"><text id="kity_text_213" text-rendering="inherit" font-size="12" dy=".8em" y="393.5" x="395.5">自顶向下，一个入口出口</text></g></g><g id="minder_node30"><g id="node_expander26" display="none" style="cursor: pointer;"><path id="kity_path_441" fill="white" stroke="gray" d="M390.5,425.5A6,6,0,1,1,378.5,425.5A6,6,0,1,1,390.5,425.5"></path><path id="kity_path_442" fill="none" stroke="gray"></path></g><path id="node_outline27" fill="none" stroke="none" d="M395.5,416.5h144a5,5,0,0,1,5,5v8a5,5,0,0,1,-5,5h-144a5,5,0,0,1,-5,-5v-8a5,5,0,0,1,5,-5z"></path><g id="node_text27" fill="black"><text id="kity_text_215" text-rendering="inherit" font-size="12" dy=".8em" y="419.5" x="395.5">风格明确、清晰，注释文档</text></g></g><g id="minder_node31"><g id="node_expander27" display="none" style="cursor: pointer;"><path id="kity_path_444" fill="white" stroke="gray" d="M390.5,451.5A6,6,0,1,1,378.5,451.5A6,6,0,1,1,390.5,451.5"></path><path id="kity_path_445" fill="none" stroke="gray"></path></g><path id="node_outline28" fill="none" stroke="none" d="M395.5,442.5h36a5,5,0,0,1,5,5v8a5,5,0,0,1,-5,5h-36a5,5,0,0,1,-5,-5v-8a5,5,0,0,1,5,-5z"></path><g id="node_text28" fill="black"><text id="kity_text_217" text-rendering="inherit" font-size="12" dy=".8em" y="445.5" x="395.5">写文档</text></g></g><g id="minder_node32"><g id="node_expander36" style="cursor: pointer;"><path id="kity_path_471" fill="white" stroke="gray" d="M334.5,477.5A6,6,0,1,1,322.5,477.5A6,6,0,1,1,334.5,477.5"></path><path id="kity_path_472" fill="none" stroke="gray" d="M324,477.5L333,477.5"></path></g><path id="node_outline37" fill="none" stroke="none" d="M339.5,468.5h36a5,5,0,0,1,5,5v8a5,5,0,0,1,-5,5h-36a5,5,0,0,1,-5,-5v-8a5,5,0,0,1,5,-5z"></path><g id="node_text37" fill="black"><text id="kity_text_235" text-rendering="inherit" font-size="12" dy=".8em" y="471.5" x="339.5">工程化</text></g></g><g id="minder_node33"><g id="node_expander35" style="cursor: pointer;"><path id="kity_path_468" fill="white" stroke="gray" d="M362.5,503.5A6,6,0,1,1,350.5,503.5A6,6,0,1,1,362.5,503.5"></path><path id="kity_path_469" fill="none" stroke="gray" d="M352,503.5L361,503.5"></path></g><path id="node_outline36" fill="none" stroke="none" d="M367.5,494.5h57a5,5,0,0,1,5,5v8a5,5,0,0,1,-5,5h-57a5,5,0,0,1,-5,-5v-8a5,5,0,0,1,5,-5z"></path><g id="node_text36" fill="black"><text id="kity_text_233" text-rendering="inherit" font-size="12" dy=".8em" y="497.5" x="367.5">AD/Cycle</text></g></g><g id="minder_node34"><g id="node_expander30" display="none" style="cursor: pointer;"><path id="kity_path_453" fill="white" stroke="gray" d="M390.5,529.5A6,6,0,1,1,378.5,529.5A6,6,0,1,1,390.5,529.5"></path><path id="kity_path_454" fill="none" stroke="gray"></path></g><path id="node_outline31" fill="none" stroke="none" d="M395.5,520.5h48a5,5,0,0,1,5,5v8a5,5,0,0,1,-5,5h-48a5,5,0,0,1,-5,-5v-8a5,5,0,0,1,5,-5z"></path><g id="node_text31" fill="black"><text id="kity_text_223" text-rendering="inherit" font-size="12" dy=".8em" y="523.5" x="395.5">需求分析</text></g></g><g id="minder_node35"><g id="node_expander31" display="none" style="cursor: pointer;"><path id="kity_path_456" fill="white" stroke="gray" d="M390.5,555.5A6,6,0,1,1,378.5,555.5A6,6,0,1,1,390.5,555.5"></path><path id="kity_path_457" fill="none" stroke="gray"></path></g><path id="node_outline32" fill="none" stroke="none" d="M395.5,546.5h60a5,5,0,0,1,5,5v8a5,5,0,0,1,-5,5h-60a5,5,0,0,1,-5,-5v-8a5,5,0,0,1,5,-5z"></path><g id="node_text32" fill="black"><text id="kity_text_225" text-rendering="inherit" font-size="12" dy=".8em" y="549.5" x="395.5">分析与设计</text></g></g><g id="minder_node36"><g id="node_expander32" display="none" style="cursor: pointer;"><path id="kity_path_459" fill="white" stroke="gray" d="M390.5,581.5A6,6,0,1,1,378.5,581.5A6,6,0,1,1,390.5,581.5"></path><path id="kity_path_460" fill="none" stroke="gray"></path></g><path id="node_outline33" fill="none" stroke="none" d="M395.5,572.5h48a5,5,0,0,1,5,5v8a5,5,0,0,1,-5,5h-48a5,5,0,0,1,-5,-5v-8a5,5,0,0,1,5,-5z"></path><g id="node_text33" fill="black"><text id="kity_text_227" text-rendering="inherit" font-size="12" dy=".8em" y="575.5" x="395.5">编程阶段</text></g></g><g id="minder_node37"><g id="node_expander33" display="none" style="cursor: pointer;"><path id="kity_path_462" fill="white" stroke="gray" d="M390.5,607.5A6,6,0,1,1,378.5,607.5A6,6,0,1,1,390.5,607.5"></path><path id="kity_path_463" fill="none" stroke="gray"></path></g><path id="node_outline34" fill="none" stroke="none" d="M395.5,598.5h48a5,5,0,0,1,5,5v8a5,5,0,0,1,-5,5h-48a5,5,0,0,1,-5,-5v-8a5,5,0,0,1,5,-5z"></path><g id="node_text34" fill="black"><text id="kity_text_229" text-rendering="inherit" font-size="12" dy=".8em" y="601.5" x="395.5">测试阶段</text></g></g><g id="minder_node38"><g id="node_expander34" display="none" style="cursor: pointer;"><path id="kity_path_465" fill="white" stroke="gray" d="M390.5,633.5A6,6,0,1,1,378.5,633.5A6,6,0,1,1,390.5,633.5"></path><path id="kity_path_466" fill="none" stroke="gray"></path></g><path id="node_outline35" fill="none" stroke="none" d="M395.5,624.5h87a5,5,0,0,1,5,5v8a5,5,0,0,1,-5,5h-87a5,5,0,0,1,-5,-5v-8a5,5,0,0,1,5,-5z"></path><g id="node_text35" fill="black"><text id="kity_text_231" text-rendering="inherit" font-size="12" dy=".8em" y="627.5" x="395.5">使用与维护阶段&#xa0;</text></g></g><g id="minder_node39"><g id="node_expander41" style="cursor: pointer;"><path id="kity_path_486" fill="white" stroke="gray" d="M334.5,659.5A6,6,0,1,1,322.5,659.5A6,6,0,1,1,334.5,659.5"></path><path id="kity_path_487" fill="none" stroke="gray" d="M324,659.5L333,659.5"></path></g><path id="node_outline42" fill="none" stroke="none" d="M339.5,650.5h48a5,5,0,0,1,5,5v8a5,5,0,0,1,-5,5h-48a5,5,0,0,1,-5,-5v-8a5,5,0,0,1,5,-5z"></path><g id="node_text42" fill="black"><text id="kity_text_245" text-rendering="inherit" font-size="12" dy=".8em" y="653.5" x="339.5">面向对象</text></g></g><g id="minder_node40"><g id="node_expander37" display="none" style="cursor: pointer;"><path id="kity_path_474" fill="white" stroke="gray" d="M362.5,685.5A6,6,0,1,1,350.5,685.5A6,6,0,1,1,362.5,685.5"></path><path id="kity_path_475" fill="none" stroke="gray"></path></g><path id="node_outline38" fill="none" stroke="none" d="M367.5,676.5h132a5,5,0,0,1,5,5v8a5,5,0,0,1,-5,5h-132a5,5,0,0,1,-5,-5v-8a5,5,0,0,1,5,-5z"></path><g id="node_text38" fill="black"><text id="kity_text_237" text-rendering="inherit" font-size="12" dy=".8em" y="679.5" x="367.5">有属性和操作，对外隐藏</text></g></g><g id="minder_node41"><g id="node_expander38" display="none" style="cursor: pointer;"><path id="kity_path_477" fill="white" stroke="gray" d="M362.5,711.5A6,6,0,1,1,350.5,711.5A6,6,0,1,1,362.5,711.5"></path><path id="kity_path_478" fill="none" stroke="gray"></path></g><path id="node_outline39" fill="none" stroke="none" d="M367.5,702.5h204a5,5,0,0,1,5,5v8a5,5,0,0,1,-5,5h-204a5,5,0,0,1,-5,-5v-8a5,5,0,0,1,5,-5z"></path><g id="node_text39" fill="black"><text id="kity_text_239" text-rendering="inherit" font-size="12" dy=".8em" y="705.5" x="367.5">抽象与具体，群体与个体、整体与局部</text></g></g><g id="minder_node42"><g id="node_expander39" display="none" style="cursor: pointer;"><path id="kity_path_480" fill="white" stroke="gray" d="M362.5,737.5A6,6,0,1,1,350.5,737.5A6,6,0,1,1,362.5,737.5"></path><path id="kity_path_481" fill="none" stroke="gray"></path></g><path id="node_outline40" fill="none" stroke="none" d="M367.5,728.5h240a5,5,0,0,1,5,5v8a5,5,0,0,1,-5,5h-240a5,5,0,0,1,-5,-5v-8a5,5,0,0,1,5,-5z"></path><g id="node_text40" fill="black"><text id="kity_text_241" text-rendering="inherit" font-size="12" dy=".8em" y="731.5" x="367.5">抽象的、较大对象自然的传递给子类，遗传性</text></g></g><g id="minder_node43"><g id="node_expander40" display="none" style="cursor: pointer;"><path id="kity_path_483" fill="white" stroke="gray" d="M362.5,763.5A6,6,0,1,1,350.5,763.5A6,6,0,1,1,362.5,763.5"></path><path id="kity_path_484" fill="none" stroke="gray"></path></g><path id="node_outline41" fill="none" stroke="none" d="M367.5,754.5h96a5,5,0,0,1,5,5v8a5,5,0,0,1,-5,5h-96a5,5,0,0,1,-5,-5v-8a5,5,0,0,1,5,-5z"></path><g id="node_text41" fill="black"><text id="kity_text_243" text-rendering="inherit" font-size="12" dy=".8em" y="757.5" x="367.5">对象之前互送消息</text></g></g><g id="minder_node44"><g id="node_expander48" style="cursor: pointer;"><path id="kity_path_507" fill="white" stroke="gray" d="M334.5,789.5A6,6,0,1,1,322.5,789.5A6,6,0,1,1,334.5,789.5"></path><path id="kity_path_508" fill="none" stroke="gray" d="M324,789.5L333,789.5"></path></g><path id="node_outline49" fill="none" stroke="none" d="M339.5,780.5h48a5,5,0,0,1,5,5v8a5,5,0,0,1,-5,5h-48a5,5,0,0,1,-5,-5v-8a5,5,0,0,1,5,-5z"></path><g id="node_text49" fill="black"><text id="kity_text_259" text-rendering="inherit" font-size="12" dy=".8em" y="783.5" x="339.5">即插即用</text></g></g><g id="minder_node45"><g id="node_expander44" style="cursor: pointer;"><path id="kity_path_495" fill="white" stroke="gray" d="M362.5,815.5A6,6,0,1,1,350.5,815.5A6,6,0,1,1,362.5,815.5"></path><path id="kity_path_496" fill="none" stroke="gray" d="M352,815.5L361,815.5"></path></g><path id="node_outline45" fill="none" stroke="none" d="M367.5,806.5h24a5,5,0,0,1,5,5v8a5,5,0,0,1,-5,5h-24a5,5,0,0,1,-5,-5v-8a5,5,0,0,1,5,-5z"></path><g id="node_text45" fill="black"><text id="kity_text_251" text-rendering="inherit" font-size="12" dy=".8em" y="809.5" x="367.5">内容</text></g></g><g id="minder_node46"><g id="node_expander42" display="none" style="cursor: pointer;"><path id="kity_path_489" fill="white" stroke="gray" d="M390.5,841.5A6,6,0,1,1,378.5,841.5A6,6,0,1,1,390.5,841.5"></path><path id="kity_path_490" fill="none" stroke="gray"></path></g><path id="node_outline43" fill="none" stroke="none" d="M395.5,832.5h84a5,5,0,0,1,5,5v8a5,5,0,0,1,-5,5h-84a5,5,0,0,1,-5,-5v-8a5,5,0,0,1,5,-5z"></path><g id="node_text43" fill="black"><text id="kity_text_247" text-rendering="inherit" font-size="12" dy=".8em" y="835.5" x="395.5">一部分提供组件</text></g></g><g id="minder_node47"><g id="node_expander43" display="none" style="cursor: pointer;"><path id="kity_path_492" fill="white" stroke="gray" d="M390.5,867.5A6,6,0,1,1,378.5,867.5A6,6,0,1,1,390.5,867.5"></path><path id="kity_path_493" fill="none" stroke="gray"></path></g><path id="node_outline44" fill="none" stroke="none" d="M395.5,858.5h132a5,5,0,0,1,5,5v8a5,5,0,0,1,-5,5h-132a5,5,0,0,1,-5,-5v-8a5,5,0,0,1,5,-5z"></path><g id="node_text44" fill="black"><text id="kity_text_249" text-rendering="inherit" font-size="12" dy=".8em" y="861.5" x="395.5">一部分提供软件构件方式</text></g></g><g id="minder_node48"><g id="node_expander47" style="cursor: pointer;"><path id="kity_path_504" fill="white" stroke="gray" d="M362.5,893.5A6,6,0,1,1,350.5,893.5A6,6,0,1,1,362.5,893.5"></path><path id="kity_path_505" fill="none" stroke="gray" d="M352,893.5L361,893.5"></path></g><path id="node_outline48" fill="none" stroke="none" d="M367.5,884.5h24a5,5,0,0,1,5,5v8a5,5,0,0,1,-5,5h-24a5,5,0,0,1,-5,-5v-8a5,5,0,0,1,5,-5z"></path><g id="node_text48" fill="black"><text id="kity_text_257" text-rendering="inherit" font-size="12" dy=".8em" y="887.5" x="367.5">困难</text></g></g><g id="minder_node49"><g id="node_expander45" display="none" style="cursor: pointer;"><path id="kity_path_498" fill="white" stroke="gray" d="M390.5,919.5A6,6,0,1,1,378.5,919.5A6,6,0,1,1,390.5,919.5"></path><path id="kity_path_499" fill="none" stroke="gray"></path></g><path id="node_outline46" fill="none" stroke="none" d="M395.5,910.5h36a5,5,0,0,1,5,5v8a5,5,0,0,1,-5,5h-36a5,5,0,0,1,-5,-5v-8a5,5,0,0,1,5,-5z"></path><g id="node_text46" fill="black"><text id="kity_text_253" text-rendering="inherit" font-size="12" dy=".8em" y="913.5" x="395.5">标准化</text></g></g><g id="minder_node50"><g id="node_expander46" display="none" style="cursor: pointer;"><path id="kity_path_501" fill="white" stroke="gray" d="M390.5,945.5A6,6,0,1,1,378.5,945.5A6,6,0,1,1,390.5,945.5"></path><path id="kity_path_502" fill="none" stroke="gray"></path></g><path id="node_outline47" fill="none" stroke="none" d="M395.5,936.5h48a5,5,0,0,1,5,5v8a5,5,0,0,1,-5,5h-48a5,5,0,0,1,-5,-5v-8a5,5,0,0,1,5,-5z"></path><g id="node_text47" fill="black"><text id="kity_text_255" text-rendering="inherit" font-size="12" dy=".8em" y="939.5" x="395.5">提供方式</text></g></g><g id="minder_node51"><g id="node_expander49" display="none" style="cursor: pointer;"><path id="kity_path_510" fill="white" stroke="gray" d="M334.5,971.5A6,6,0,1,1,322.5,971.5A6,6,0,1,1,334.5,971.5"></path><path id="kity_path_511" fill="none" stroke="gray"></path></g><path id="node_outline50" fill="none" stroke="none" d="M339.5,962.5h72a5,5,0,0,1,5,5v8a5,5,0,0,1,-5,5h-72a5,5,0,0,1,-5,-5v-8a5,5,0,0,1,5,-5z"></path><g id="node_text50" fill="black"><text id="kity_text_261" text-rendering="inherit" font-size="12" dy=".8em" y="965.5" x="339.5">面向开源软件</text></g></g><g id="minder_node52"><g id="node_expander67" style="cursor: pointer;"><path id="kity_path_564" fill="white" stroke="gray" d="M722,59.5A6,6,0,1,1,710,59.5A6,6,0,1,1,722,59.5"></path><path id="kity_path_565" fill="none" stroke="gray" d="M711.5,59.5L720.5,59.5"></path></g><path id="node_outline68" fill="rgb(238, 246, 238)" stroke="rgb(115, 191, 118)" d="M631.5,66.5h169a3,3,0,0,1,3,3v20a3,3,0,0,1,-3,3h-169a3,3,0,0,1,-3,-3v-20a3,3,0,0,1,3,-3z" stroke-width="1"></path><g id="node_text68" fill="black"><text id="kity_text_297" text-rendering="inherit" font-size="14" dy=".8em" y="72.5" x="648.5">2.3 软件开发过程管理</text></g></g><g id="minder_node53"><g id="node_expander56" style="cursor: pointer;"><path id="kity_path_531" fill="white" stroke="gray" d="M656.5,113.5A6,6,0,1,1,644.5,113.5A6,6,0,1,1,656.5,113.5"></path><path id="kity_path_532" fill="none" stroke="gray" d="M646,113.5L655,113.5"></path></g><path id="node_outline57" fill="none" stroke="none" d="M661.5,104.5h48a5,5,0,0,1,5,5v8a5,5,0,0,1,-5,5h-48a5,5,0,0,1,-5,-5v-8a5,5,0,0,1,5,-5z"></path><g id="node_text57" fill="black"><text id="kity_text_275" text-rendering="inherit" font-size="12" dy=".8em" y="107.5" x="661.5">软件评价</text></g></g><g id="minder_node54"><g id="node_expander51" display="none" style="cursor: pointer;"><path id="kity_path_516" fill="white" stroke="gray" d="M684.5,139.5A6,6,0,1,1,672.5,139.5A6,6,0,1,1,684.5,139.5"></path><path id="kity_path_517" fill="none" stroke="gray"></path></g><path id="node_outline52" fill="none" stroke="none" d="M689.5,130.5h48a5,5,0,0,1,5,5v8a5,5,0,0,1,-5,5h-48a5,5,0,0,1,-5,-5v-8a5,5,0,0,1,5,-5z"></path><g id="node_text52" fill="black"><text id="kity_text_265" text-rendering="inherit" font-size="12" dy=".8em" y="133.5" x="689.5">功能正确</text></g></g><g id="minder_node55"><g id="node_expander52" display="none" style="cursor: pointer;"><path id="kity_path_519" fill="white" stroke="gray" d="M684.5,165.5A6,6,0,1,1,672.5,165.5A6,6,0,1,1,684.5,165.5"></path><path id="kity_path_520" fill="none" stroke="gray"></path></g><path id="node_outline53" fill="none" stroke="none" d="M689.5,156.5h72a5,5,0,0,1,5,5v8a5,5,0,0,1,-5,5h-72a5,5,0,0,1,-5,-5v-8a5,5,0,0,1,5,-5z"></path><g id="node_text53" fill="black"><text id="kity_text_267" text-rendering="inherit" font-size="12" dy=".8em" y="159.5" x="689.5">界面好，易用</text></g></g><g id="minder_node56"><g id="node_expander53" display="none" style="cursor: pointer;"><path id="kity_path_522" fill="white" stroke="gray" d="M684.5,191.5A6,6,0,1,1,672.5,191.5A6,6,0,1,1,684.5,191.5"></path><path id="kity_path_523" fill="none" stroke="gray"></path></g><path id="node_outline54" fill="none" stroke="none" d="M689.5,182.5h60a5,5,0,0,1,5,5v8a5,5,0,0,1,-5,5h-60a5,5,0,0,1,-5,-5v-8a5,5,0,0,1,5,-5z"></path><g id="node_text54" fill="black"><text id="kity_text_269" text-rendering="inherit" font-size="12" dy=".8em" y="185.5" x="689.5">足够的速度</text></g></g><g id="minder_node57"><g id="node_expander54" display="none" style="cursor: pointer;"><path id="kity_path_525" fill="white" stroke="gray" d="M684.5,217.5A6,6,0,1,1,672.5,217.5A6,6,0,1,1,684.5,217.5"></path><path id="kity_path_526" fill="none" stroke="gray"></path></g><path id="node_outline55" fill="none" stroke="none" d="M689.5,208.5h36a5,5,0,0,1,5,5v8a5,5,0,0,1,-5,5h-36a5,5,0,0,1,-5,-5v-8a5,5,0,0,1,5,-5z"></path><g id="node_text55" fill="black"><text id="kity_text_271" text-rendering="inherit" font-size="12" dy=".8em" y="211.5" x="689.5">可靠性</text></g></g><g id="minder_node58"><g id="node_expander55" display="none" style="cursor: pointer;"><path id="kity_path_528" fill="white" stroke="gray" d="M684.5,243.5A6,6,0,1,1,672.5,243.5A6,6,0,1,1,684.5,243.5"></path><path id="kity_path_529" fill="none" stroke="gray"></path></g><path id="node_outline56" fill="none" stroke="none" d="M689.5,234.5h120a5,5,0,0,1,5,5v8a5,5,0,0,1,-5,5h-120a5,5,0,0,1,-5,-5v-8a5,5,0,0,1,5,-5z"></path><g id="node_text56" fill="black"><text id="kity_text_273" text-rendering="inherit" font-size="12" dy=".8em" y="237.5" x="689.5">软件说明文档，易维护</text></g></g><g id="minder_node59"><g id="node_expander60" style="cursor: pointer;"><path id="kity_path_543" fill="white" stroke="gray" d="M656.5,269.5A6,6,0,1,1,644.5,269.5A6,6,0,1,1,656.5,269.5"></path><path id="kity_path_544" fill="none" stroke="gray" d="M646,269.5L655,269.5"></path></g><path id="node_outline61" fill="none" stroke="none" d="M661.5,260.5h92a5,5,0,0,1,5,5v8a5,5,0,0,1,-5,5h-92a5,5,0,0,1,-5,-5v-8a5,5,0,0,1,5,-5z"></path><g id="node_text61" fill="black"><text id="kity_text_283" text-rendering="inherit" font-size="12" dy=".8em" y="263.5" x="661.5">工作组评价CMM</text></g></g><g id="minder_node60"><g id="node_expander57" display="none" style="cursor: pointer;"><path id="kity_path_534" fill="white" stroke="gray" d="M684.5,295.5A6,6,0,1,1,672.5,295.5A6,6,0,1,1,684.5,295.5"></path><path id="kity_path_535" fill="none" stroke="gray"></path></g><path id="node_outline58" fill="none" stroke="none" d="M689.5,286.5h132a5,5,0,0,1,5,5v8a5,5,0,0,1,-5,5h-132a5,5,0,0,1,-5,-5v-8a5,5,0,0,1,5,-5z"></path><g id="node_text58" fill="black"><text id="kity_text_277" text-rendering="inherit" font-size="12" dy=".8em" y="289.5" x="689.5">有规范并严格按规范执行</text></g></g><g id="minder_node61"><g id="node_expander58" display="none" style="cursor: pointer;"><path id="kity_path_537" fill="white" stroke="gray" d="M684.5,321.5A6,6,0,1,1,672.5,321.5A6,6,0,1,1,684.5,321.5"></path><path id="kity_path_538" fill="none" stroke="gray"></path></g><path id="node_outline59" fill="none" stroke="none" d="M689.5,312.5h192a5,5,0,0,1,5,5v8a5,5,0,0,1,-5,5h-192a5,5,0,0,1,-5,-5v-8a5,5,0,0,1,5,-5z"></path><g id="node_text59" fill="black"><text id="kity_text_279" text-rendering="inherit" font-size="12" dy=".8em" y="315.5" x="689.5">明确分工，秘书，测试，项目管理者</text></g></g><g id="minder_node62"><g id="node_expander59" display="none" style="cursor: pointer;"><path id="kity_path_540" fill="white" stroke="gray" d="M684.5,347.5A6,6,0,1,1,672.5,347.5A6,6,0,1,1,684.5,347.5"></path><path id="kity_path_541" fill="none" stroke="gray"></path></g><path id="node_outline60" fill="none" stroke="none" d="M689.5,338.5h228a5,5,0,0,1,5,5v8a5,5,0,0,1,-5,5h-228a5,5,0,0,1,-5,-5v-8a5,5,0,0,1,5,-5z"></path><g id="node_text60" fill="black"><text id="kity_text_281" text-rendering="inherit" font-size="12" dy=".8em" y="341.5" x="689.5">项目事先时间表，严格执行，资料妥善保存</text></g></g><g id="minder_node63"><g id="node_expander66" style="cursor: pointer;"><path id="kity_path_561" fill="white" stroke="gray" d="M656.5,373.5A6,6,0,1,1,644.5,373.5A6,6,0,1,1,656.5,373.5"></path><path id="kity_path_562" fill="none" stroke="gray" d="M646,373.5L655,373.5"></path></g><path id="node_outline67" fill="none" stroke="none" d="M661.5,364.5h48a5,5,0,0,1,5,5v8a5,5,0,0,1,-5,5h-48a5,5,0,0,1,-5,-5v-8a5,5,0,0,1,5,-5z"></path><g id="node_text67" fill="black"><text id="kity_text_295" text-rendering="inherit" font-size="12" dy=".8em" y="367.5" x="661.5">好程序员</text></g></g><g id="minder_node64"><g id="node_expander61" display="none" style="cursor: pointer;"><path id="kity_path_546" fill="white" stroke="gray" d="M684.5,399.5A6,6,0,1,1,672.5,399.5A6,6,0,1,1,684.5,399.5"></path><path id="kity_path_547" fill="none" stroke="gray"></path></g><path id="node_outline62" fill="none" stroke="none" d="M689.5,390.5h36a5,5,0,0,1,5,5v8a5,5,0,0,1,-5,5h-36a5,5,0,0,1,-5,-5v-8a5,5,0,0,1,5,-5z"></path><g id="node_text62" fill="black"><text id="kity_text_285" text-rendering="inherit" font-size="12" dy=".8em" y="393.5" x="689.5">模块内</text></g></g><g id="minder_node65"><g id="node_expander62" display="none" style="cursor: pointer;"><path id="kity_path_549" fill="white" stroke="gray" d="M684.5,425.5A6,6,0,1,1,672.5,425.5A6,6,0,1,1,684.5,425.5"></path><path id="kity_path_550" fill="none" stroke="gray"></path></g><path id="node_outline63" fill="none" stroke="none" d="M689.5,416.5h36a5,5,0,0,1,5,5v8a5,5,0,0,1,-5,5h-36a5,5,0,0,1,-5,-5v-8a5,5,0,0,1,5,-5z"></path><g id="node_text63" fill="black"><text id="kity_text_287" text-rendering="inherit" font-size="12" dy=".8em" y="419.5" x="689.5">标识符</text></g></g><g id="minder_node66"><g id="node_expander63" display="none" style="cursor: pointer;"><path id="kity_path_552" fill="white" stroke="gray" d="M684.5,451.5A6,6,0,1,1,672.5,451.5A6,6,0,1,1,684.5,451.5"></path><path id="kity_path_553" fill="none" stroke="gray"></path></g><path id="node_outline64" fill="none" stroke="none" d="M689.5,442.5h60a5,5,0,0,1,5,5v8a5,5,0,0,1,-5,5h-60a5,5,0,0,1,-5,-5v-8a5,5,0,0,1,5,-5z"></path><g id="node_text64" fill="black"><text id="kity_text_289" text-rendering="inherit" font-size="12" dy=".8em" y="445.5" x="689.5">注释，文档</text></g></g><g id="minder_node67"><g id="node_expander64" display="none" style="cursor: pointer;"><path id="kity_path_555" fill="white" stroke="gray" d="M684.5,477.5A6,6,0,1,1,672.5,477.5A6,6,0,1,1,684.5,477.5"></path><path id="kity_path_556" fill="none" stroke="gray"></path></g><path id="node_outline65" fill="none" stroke="none" d="M689.5,468.5h132a5,5,0,0,1,5,5v8a5,5,0,0,1,-5,5h-132a5,5,0,0,1,-5,-5v-8a5,5,0,0,1,5,-5z"></path><g id="node_text65" fill="black"><text id="kity_text_291" text-rendering="inherit" font-size="12" dy=".8em" y="471.5" x="689.5">按规范操作公用数据库等</text></g></g><g id="minder_node68"><g id="node_expander65" display="none" style="cursor: pointer;"><path id="kity_path_558" fill="white" stroke="gray" d="M684.5,503.5A6,6,0,1,1,672.5,503.5A6,6,0,1,1,684.5,503.5"></path><path id="kity_path_559" fill="none" stroke="gray"></path></g><path id="node_outline66" fill="none" stroke="none" d="M689.5,494.5h84a5,5,0,0,1,5,5v8a5,5,0,0,1,-5,5h-84a5,5,0,0,1,-5,-5v-8a5,5,0,0,1,5,-5z"></path><g id="node_text66" fill="black"><text id="kity_text_293" text-rendering="inherit" font-size="12" dy=".8em" y="497.5" x="689.5">一致的代码风格</text></g></g></g></g></svg>