<svg id="kity_svg_6" xmlns="http://www.w3.org/2000/svg" xmlns:xlink="http://www.w3.org/1999/xlink" version="1.1" width="961" height="562" style="background: rgb(251, 251, 251); visibility: visible;" viewBox="0 0 961 562"><defs id="kity_defs_7"><linearGradient id="kity_linearGradient_17" x1="0" y1="0" x2="0" y2="1"><stop id="kity_stop_18" offset="0" stop-color="rgb(255, 255, 255)"></stop><stop id="kity_stop_19" offset="1" stop-color="rgb(204, 204, 204)"></stop></linearGradient><marker id="kity_marker_2" orient="auto" refX="6" refY="0" viewBox="-7 -7 14 14" markerWidth="7" markerHeight="7" markerUnits="userSpaceOnUse"><path id="kity_path_3" fill="rgb(115, 161, 191)" stroke="none" d="M6,0A6,6,0,1,1,-6,0A6,6,0,1,1,6,0"></path></marker></defs><g id="kity_g_8"><g id="minder1" text-rendering="optimize-speed"><g id="minder_connect_group1"><path id="kity_path_31" fill="none" stroke="rgb(115, 191, 118)" stroke-width="1" d="M459.5,48.5v10h-393V66.5"></path><path id="kity_path_33" fill="none" stroke="rgb(115, 191, 118)" stroke-width="1" d="M40.5,92.5V116L48.5,116"></path><path id="kity_path_35" fill="none" stroke="rgb(115, 191, 118)" stroke-width="1" d="M40.5,92.5V147L48.5,147"></path><path id="kity_path_37" fill="none" stroke="rgb(115, 191, 118)" stroke-width="1" d="M40.5,92.5V175.5L48.5,175.5"></path><path id="kity_path_39" fill="none" stroke="rgb(115, 191, 118)" stroke-width="1" d="M68.5,184.5V201.5L76.5,201.5"></path><path id="kity_path_41" fill="none" stroke="rgb(115, 191, 118)" stroke-width="1" d="M68.5,184.5V227.5L76.5,227.5"></path><path id="kity_path_43" fill="none" stroke="rgb(115, 191, 118)" stroke-width="1" d="M68.5,184.5V253.5L76.5,253.5"></path><path id="kity_path_45" fill="none" stroke="rgb(115, 191, 118)" stroke-width="1" d="M68.5,184.5V282L76.5,282"></path><path id="kity_path_47" fill="none" stroke="rgb(115, 191, 118)" stroke-width="1" d="M68.5,184.5V310.5L76.5,310.5"></path><path id="kity_path_49" fill="none" stroke="rgb(115, 191, 118)" stroke-width="1" d="M68.5,184.5V336.5L76.5,336.5"></path><path id="kity_path_51" fill="none" stroke="rgb(115, 191, 118)" stroke-width="1" d="M68.5,184.5V362.5L76.5,362.5"></path><path id="kity_path_53" fill="none" stroke="rgb(115, 191, 118)" stroke-width="1" d="M40.5,92.5V391L48.5,391"></path><path id="kity_path_55" fill="none" stroke="rgb(115, 191, 118)" stroke-width="1" d="M68.5,402.5V422L76.5,422"></path><path id="kity_path_57" fill="none" stroke="rgb(115, 191, 118)" stroke-width="1" d="M68.5,402.5V450.5L76.5,450.5"></path><path id="kity_path_59" fill="none" stroke="rgb(115, 191, 118)" stroke-width="1" d="M68.5,402.5V476.5L76.5,476.5"></path><path id="kity_path_61" fill="none" stroke="rgb(115, 191, 118)" stroke-width="1" d="M459.5,48.5v10h-26.5V66.5"></path><path id="kity_path_63" fill="none" stroke="rgb(115, 191, 118)" stroke-width="1" d="M398.5,95.5V116.5L406.5,116.5"></path><path id="kity_path_65" fill="none" stroke="rgb(115, 191, 118)" stroke-width="1" d="M426.5,125.5V142.5L434.5,142.5"></path><path id="kity_path_67" fill="none" stroke="rgb(115, 191, 118)" stroke-width="1" d="M426.5,125.5V168.5L434.5,168.5"></path><path id="kity_path_69" fill="none" stroke="rgb(115, 191, 118)" stroke-width="1" d="M398.5,95.5V197L406.5,197"></path><path id="kity_path_71" fill="none" stroke="rgb(115, 191, 118)" stroke-width="1" d="M398.5,95.5V225.5L406.5,225.5"></path><path id="kity_path_73" fill="none" stroke="rgb(115, 191, 118)" stroke-width="1" d="M426.5,234.5V251.5L434.5,251.5"></path><path id="kity_path_75" fill="none" stroke="rgb(115, 191, 118)" stroke-width="1" d="M426.5,234.5V277.5L434.5,277.5"></path><path id="kity_path_77" fill="none" stroke="rgb(115, 191, 118)" stroke-width="1" d="M426.5,234.5V303.5L434.5,303.5"></path><path id="kity_path_79" fill="none" stroke="rgb(115, 191, 118)" stroke-width="1" d="M426.5,234.5V329.5L434.5,329.5"></path><path id="kity_path_81" fill="none" stroke="rgb(115, 191, 118)" stroke-width="1" d="M459.5,48.5v10h172.5V66.5"></path><path id="kity_path_83" fill="none" stroke="rgb(115, 191, 118)" stroke-width="1" d="M588.5,92.5V113.5L596.5,113.5"></path><path id="kity_path_85" fill="none" stroke="rgb(115, 191, 118)" stroke-width="1" d="M616.5,122.5V139.5L624.5,139.5"></path><path id="kity_path_87" fill="none" stroke="rgb(115, 191, 118)" stroke-width="1" d="M616.5,122.5V168L624.5,168"></path><path id="kity_path_89" fill="none" stroke="rgb(115, 191, 118)" stroke-width="1" d="M616.5,122.5V199L624.5,199"></path><path id="kity_path_91" fill="none" stroke="rgb(115, 191, 118)" stroke-width="1" d="M616.5,122.5V230L624.5,230"></path><path id="kity_path_93" fill="none" stroke="rgb(115, 191, 118)" stroke-width="1" d="M588.5,92.5V258.5L596.5,258.5"></path><path id="kity_path_95" fill="none" stroke="rgb(115, 191, 118)" stroke-width="1" d="M616.5,267.5V287L624.5,287"></path><path id="kity_path_97" fill="none" stroke="rgb(115, 191, 118)" stroke-width="1" d="M616.5,267.5V315.5L624.5,315.5"></path><path id="kity_path_99" fill="none" stroke="rgb(115, 191, 118)" stroke-width="1" d="M616.5,267.5V344L624.5,344"></path><path id="kity_path_101" fill="none" stroke="rgb(115, 191, 118)" stroke-width="1" d="M616.5,267.5V375L624.5,375"></path><path id="kity_path_103" fill="none" stroke="rgb(115, 191, 118)" stroke-width="1" d="M588.5,92.5V403.5L596.5,403.5"></path><path id="kity_path_105" fill="none" stroke="rgb(115, 191, 118)" stroke-width="1" d="M616.5,412.5V429.5L624.5,429.5"></path><path id="kity_path_107" fill="none" stroke="rgb(115, 191, 118)" stroke-width="1" d="M616.5,412.5V455.5L624.5,455.5"></path><path id="kity_path_109" fill="none" stroke="rgb(115, 191, 118)" stroke-width="1" d="M616.5,412.5V481.5L624.5,481.5"></path><path id="kity_path_111" fill="none" stroke="rgb(115, 191, 118)" stroke-width="1" d="M616.5,412.5V507.5L624.5,507.5"></path><path id="kity_path_113" fill="none" stroke="rgb(115, 191, 118)" stroke-width="1" d="M616.5,412.5V533.5L624.5,533.5"></path><path id="kity_path_115" fill="none" stroke="rgb(115, 191, 118)" stroke-width="1" d="M459.5,48.5v10h393V66.5"></path><path id="kity_path_117" fill="none" stroke="rgb(115, 191, 118)" stroke-width="1" d="M826.5,92.5V116L834.5,116"></path><path id="kity_path_119" fill="none" stroke="rgb(115, 191, 118)" stroke-width="1" d="M854.5,127.5V147L862.5,147"></path><path id="kity_path_121" fill="none" stroke="rgb(115, 191, 118)" stroke-width="1" d="M854.5,127.5V178L862.5,178"></path><path id="kity_path_123" fill="none" stroke="rgb(115, 191, 118)" stroke-width="1" d="M854.5,127.5V209L862.5,209"></path><path id="kity_path_125" fill="none" stroke="rgb(115, 191, 118)" stroke-width="1" d="M826.5,92.5V237.5L834.5,237.5"></path><path id="kity_path_127" fill="none" stroke="rgb(115, 191, 118)" stroke-width="1" d="M854.5,246.5V266L862.5,266"></path><path id="kity_path_129" fill="none" stroke="rgb(115, 191, 118)" stroke-width="1" d="M854.5,246.5V297L862.5,297"></path><path id="kity_path_131" fill="none" stroke="rgb(115, 191, 118)" stroke-width="1" d="M826.5,92.5V325.5L834.5,325.5"></path><path id="kity_path_133" fill="none" stroke="rgb(115, 191, 118)" stroke-width="1" d="M854.5,334.5V354L862.5,354"></path><path id="kity_path_135" fill="none" stroke="rgb(115, 191, 118)" stroke-width="1" d="M854.5,334.5V385L862.5,385"></path></g><g id="minder_node1"><path id="node_outline1" fill="#ff0000" stroke="rgb(57, 96, 58)" d="M429.5,20.5h59a5,5,0,0,1,5,5v18a5,5,0,0,1,-5,5h-59a5,5,0,0,1,-5,-5v-18a5,5,0,0,1,5,-5z" stroke-width="3"></path><g id="node_text1" fill="white"><text id="kity_text_22" text-rendering="inherit" font-size="16" dy=".8em" y="26.5" x="436.5">1.绪论</text></g></g><g id="kity_g_12"><path id="kity_path_13" fill="none" stroke="none" d="M436.5,34.5h0v0h0z"></path></g><g id="kity_g_14"><path id="kity_path_15" fill="none" stroke="none" d="M436.5,34.5h0v0h0z"></path><path id="kity_path_16" fill="none" stroke="none"></path></g><g id="minder_node2"><g id="node_expander15" style="cursor: pointer;"><path id="kity_path_401" fill="white" stroke="gray" d="M72,59.5A6,6,0,1,1,60,59.5A6,6,0,1,1,72,59.5"></path><path id="kity_path_402" fill="none" stroke="gray" d="M61.5,59.5L70.5,59.5"></path></g><path id="node_outline16" fill="rgb(238, 246, 238)" stroke="rgb(115, 191, 118)" d="M23.5,66.5h85a3,3,0,0,1,3,3v20a3,3,0,0,1,-3,3h-85a3,3,0,0,1,-3,-3v-20a3,3,0,0,1,3,-3z" stroke-width="1"></path><g id="node_text16" fill="black"><text id="kity_text_165" text-rendering="inherit" font-size="14" dy=".8em" y="72.5" x="40.5">1.1 由来</text></g></g><g id="minder_node3"><g id="node_expander1" display="none" style="cursor: pointer;"><path id="kity_path_359" fill="white" stroke="gray" d="M48.5,116A6,6,0,1,1,36.5,116A6,6,0,1,1,48.5,116"></path><path id="kity_path_360" fill="none" stroke="gray"></path></g><path id="node_outline2" fill="none" stroke="none" d="M53.5,104.5h45a5,5,0,0,1,5,5v13a5,5,0,0,1,-5,5h-45a5,5,0,0,1,-5,-5v-13a5,5,0,0,1,5,-5z"></path><g id="node_text2" fill="black"><text id="kity_text_137" text-rendering="inherit" font-size="12" dy=".8em" y="109.5" x="53.5">范围</text></g><g id="kity_g_242" style="cursor: pointer;"><path id="kity_path_243" fill="none" stroke="none" d="M85,107h12a2,2,0,0,1,2,2v13a2,2,0,0,1,-2,2h-12a2,2,0,0,1,-2,-2v-13a2,2,0,0,1,2,-2z"></path><path id="kity_path_244" fill="black" stroke="none" d="M94,118H88V117h6L94,118L94,118zM94,116H88V115h6V116zM94,114H88V113h6V114zM93.5,120H87V111h8v7.5M94,121l2,-2V110H86v11"></path></g></g><g id="minder_node4"><g id="node_expander2" display="none" style="cursor: pointer;"><path id="kity_path_362" fill="white" stroke="gray" d="M48.5,147A6,6,0,1,1,36.5,147A6,6,0,1,1,48.5,147"></path><path id="kity_path_363" fill="none" stroke="gray"></path></g><path id="node_outline3" fill="none" stroke="none" d="M53.5,135.5h69a5,5,0,0,1,5,5v13a5,5,0,0,1,-5,5h-69a5,5,0,0,1,-5,-5v-13a5,5,0,0,1,5,-5z"></path><g id="node_text3" fill="black"><text id="kity_text_139" text-rendering="inherit" font-size="12" dy=".8em" y="140.5" x="53.5">软件危机</text></g><g id="kity_g_245" style="cursor: pointer;"><path id="kity_path_246" fill="none" stroke="none" d="M109,138h12a2,2,0,0,1,2,2v13a2,2,0,0,1,-2,2h-12a2,2,0,0,1,-2,-2v-13a2,2,0,0,1,2,-2z"></path><path id="kity_path_247" fill="black" stroke="none" d="M118,149H112V148h6L118,149L118,149zM118,147H112V146h6V147zM118,145H112V144h6V145zM117.5,151H111V142h8v7.5M118,152l2,-2V141H110v11"></path></g></g><g id="minder_node5"><g id="node_expander10" style="cursor: pointer;"><path id="kity_path_386" fill="white" stroke="gray" d="M48.5,175.5A6,6,0,1,1,36.5,175.5A6,6,0,1,1,48.5,175.5"></path><path id="kity_path_387" fill="none" stroke="gray" d="M38,175.5L47,175.5"></path></g><path id="node_outline11" fill="none" stroke="none" d="M53.5,166.5h48a5,5,0,0,1,5,5v8a5,5,0,0,1,-5,5h-48a5,5,0,0,1,-5,-5v-8a5,5,0,0,1,5,-5z"></path><g id="node_text11" fill="black"><text id="kity_text_155" text-rendering="inherit" font-size="12" dy=".8em" y="169.5" x="53.5">发展历程</text></g></g><g id="minder_node6"><g id="node_expander3" display="none" style="cursor: pointer;"><path id="kity_path_365" fill="white" stroke="gray" d="M76.5,201.5A6,6,0,1,1,64.5,201.5A6,6,0,1,1,76.5,201.5"></path><path id="kity_path_366" fill="none" stroke="gray"></path></g><path id="node_outline4" fill="none" stroke="none" d="M81.5,192.5h24a5,5,0,0,1,5,5v8a5,5,0,0,1,-5,5h-24a5,5,0,0,1,-5,-5v-8a5,5,0,0,1,5,-5z"></path><g id="node_text4" fill="black"><text id="kity_text_141" text-rendering="inherit" font-size="12" dy=".8em" y="195.5" x="81.5">机器</text></g></g><g id="minder_node7"><g id="node_expander4" display="none" style="cursor: pointer;"><path id="kity_path_368" fill="white" stroke="gray" d="M76.5,227.5A6,6,0,1,1,64.5,227.5A6,6,0,1,1,76.5,227.5"></path><path id="kity_path_369" fill="none" stroke="gray"></path></g><path id="node_outline5" fill="none" stroke="none" d="M81.5,218.5h24a5,5,0,0,1,5,5v8a5,5,0,0,1,-5,5h-24a5,5,0,0,1,-5,-5v-8a5,5,0,0,1,5,-5z"></path><g id="node_text5" fill="black"><text id="kity_text_143" text-rendering="inherit" font-size="12" dy=".8em" y="221.5" x="81.5">汇编</text></g></g><g id="minder_node8"><g id="node_expander5" display="none" style="cursor: pointer;"><path id="kity_path_371" fill="white" stroke="gray" d="M76.5,253.5A6,6,0,1,1,64.5,253.5A6,6,0,1,1,76.5,253.5"></path><path id="kity_path_372" fill="none" stroke="gray"></path></g><path id="node_outline6" fill="none" stroke="none" d="M81.5,244.5h276a5,5,0,0,1,5,5v8a5,5,0,0,1,-5,5h-276a5,5,0,0,1,-5,-5v-8a5,5,0,0,1,5,-5z"></path><g id="node_text6" fill="black"><text id="kity_text_145" text-rendering="inherit" font-size="12" dy=".8em" y="247.5" x="81.5">三代高级，独立于机器，硬件差异交给编译系统完成</text></g></g><g id="minder_node9"><g id="node_expander6" display="none" style="cursor: pointer;"><path id="kity_path_374" fill="white" stroke="gray" d="M76.5,282A6,6,0,1,1,64.5,282A6,6,0,1,1,76.5,282"></path><path id="kity_path_375" fill="none" stroke="gray"></path></g><path id="node_outline7" fill="none" stroke="none" d="M81.5,270.5h81a5,5,0,0,1,5,5v13a5,5,0,0,1,-5,5h-81a5,5,0,0,1,-5,-5v-13a5,5,0,0,1,5,-5z"></path><g id="node_text7" fill="black"><text id="kity_text_147" text-rendering="inherit" font-size="12" dy=".8em" y="275.5" x="81.5">第四代语言</text></g><g id="kity_g_248" style="cursor: pointer;"><path id="kity_path_249" fill="none" stroke="none" d="M149,273h12a2,2,0,0,1,2,2v13a2,2,0,0,1,-2,2h-12a2,2,0,0,1,-2,-2v-13a2,2,0,0,1,2,-2z"></path><path id="kity_path_250" fill="black" stroke="none" d="M158,284H152V283h6L158,284L158,284zM158,282H152V281h6V282zM158,280H152V279h6V280zM157.5,286H151V277h8v7.5M158,287l2,-2V276H150v11"></path></g></g><g id="minder_node10"><g id="node_expander7" display="none" style="cursor: pointer;"><path id="kity_path_377" fill="white" stroke="gray" d="M76.5,310.5A6,6,0,1,1,64.5,310.5A6,6,0,1,1,76.5,310.5"></path><path id="kity_path_378" fill="none" stroke="gray"></path></g><path id="node_outline8" fill="none" stroke="none" d="M81.5,301.5h72a5,5,0,0,1,5,5v8a5,5,0,0,1,-5,5h-72a5,5,0,0,1,-5,-5v-8a5,5,0,0,1,5,-5z"></path><g id="node_text8" fill="black"><text id="kity_text_149" text-rendering="inherit" font-size="12" dy=".8em" y="304.5" x="81.5">利用通用软件</text></g></g><g id="minder_node11"><g id="node_expander8" display="none" style="cursor: pointer;"><path id="kity_path_380" fill="white" stroke="gray" d="M76.5,336.5A6,6,0,1,1,64.5,336.5A6,6,0,1,1,76.5,336.5"></path><path id="kity_path_381" fill="none" stroke="gray"></path></g><path id="node_outline9" fill="none" stroke="none" d="M81.5,327.5h48a5,5,0,0,1,5,5v8a5,5,0,0,1,-5,5h-48a5,5,0,0,1,-5,-5v-8a5,5,0,0,1,5,-5z"></path><g id="node_text9" fill="black"><text id="kity_text_151" text-rendering="inherit" font-size="12" dy=".8em" y="330.5" x="81.5">专用软件</text></g></g><g id="minder_node12"><g id="node_expander9" display="none" style="cursor: pointer;"><path id="kity_path_383" fill="white" stroke="gray" d="M76.5,362.5A6,6,0,1,1,64.5,362.5A6,6,0,1,1,76.5,362.5"></path><path id="kity_path_384" fill="none" stroke="gray"></path></g><path id="node_outline10" fill="none" stroke="none" d="M81.5,353.5h132a5,5,0,0,1,5,5v8a5,5,0,0,1,-5,5h-132a5,5,0,0,1,-5,-5v-8a5,5,0,0,1,5,-5z"></path><g id="node_text10" fill="black"><text id="kity_text_153" text-rendering="inherit" font-size="12" dy=".8em" y="356.5" x="81.5">集成的软件开发工具阶段</text></g></g><g id="minder_node13"><g id="node_expander14" style="cursor: pointer;"><path id="kity_path_398" fill="white" stroke="gray" d="M48.5,391A6,6,0,1,1,36.5,391A6,6,0,1,1,48.5,391"></path><path id="kity_path_399" fill="none" stroke="gray" d="M38,391L47,391"></path></g><path id="node_outline15" fill="none" stroke="none" d="M53.5,379.5h93a5,5,0,0,1,5,5v13a5,5,0,0,1,-5,5h-93a5,5,0,0,1,-5,-5v-13a5,5,0,0,1,5,-5z"></path><g id="node_text15" fill="black"><text id="kity_text_163" text-rendering="inherit" font-size="12" dy=".8em" y="384.5" x="53.5">通用软件不足</text></g><g id="kity_g_254" style="cursor: pointer;"><path id="kity_path_255" fill="none" stroke="none" d="M133,382h12a2,2,0,0,1,2,2v13a2,2,0,0,1,-2,2h-12a2,2,0,0,1,-2,-2v-13a2,2,0,0,1,2,-2z"></path><path id="kity_path_256" fill="black" stroke="none" d="M142,393H136V392h6L142,393L142,393zM142,391H136V390h6V391zM142,389H136V388h6V389zM141.5,395H135V386h8v7.5M142,396l2,-2V385H134v11"></path></g></g><g id="minder_node14"><g id="node_expander11" display="none" style="cursor: pointer;"><path id="kity_path_389" fill="white" stroke="gray" d="M76.5,422A6,6,0,1,1,64.5,422A6,6,0,1,1,76.5,422"></path><path id="kity_path_390" fill="none" stroke="gray"></path></g><path id="node_outline12" fill="none" stroke="none" d="M81.5,410.5h117a5,5,0,0,1,5,5v13a5,5,0,0,1,-5,5h-117a5,5,0,0,1,-5,-5v-13a5,5,0,0,1,5,-5z"></path><g id="node_text12" fill="black"><text id="kity_text_157" text-rendering="inherit" font-size="12" dy=".8em" y="415.5" x="81.5">许多工作无法完成</text></g><g id="kity_g_251" style="cursor: pointer;"><path id="kity_path_252" fill="none" stroke="none" d="M185,413h12a2,2,0,0,1,2,2v13a2,2,0,0,1,-2,2h-12a2,2,0,0,1,-2,-2v-13a2,2,0,0,1,2,-2z"></path><path id="kity_path_253" fill="black" stroke="none" d="M194,424H188V423h6L194,424L194,424zM194,422H188V421h6V422zM194,420H188V419h6V420zM193.5,426H187V417h8v7.5M194,427l2,-2V416H186v11"></path></g></g><g id="minder_node15"><g id="node_expander12" display="none" style="cursor: pointer;"><path id="kity_path_392" fill="white" stroke="gray" d="M76.5,450.5A6,6,0,1,1,64.5,450.5A6,6,0,1,1,76.5,450.5"></path><path id="kity_path_393" fill="none" stroke="gray"></path></g><path id="node_outline13" fill="none" stroke="none" d="M81.5,441.5h84a5,5,0,0,1,5,5v8a5,5,0,0,1,-5,5h-84a5,5,0,0,1,-5,-5v-8a5,5,0,0,1,5,-5z"></path><g id="node_text13" fill="black"><text id="kity_text_159" text-rendering="inherit" font-size="12" dy=".8em" y="444.5" x="81.5">形似而不是神似</text></g></g><g id="minder_node16"><g id="node_expander13" display="none" style="cursor: pointer;"><path id="kity_path_395" fill="white" stroke="gray" d="M76.5,476.5A6,6,0,1,1,64.5,476.5A6,6,0,1,1,76.5,476.5"></path><path id="kity_path_396" fill="none" stroke="gray"></path></g><path id="node_outline14" fill="none" stroke="none" d="M81.5,467.5h60a5,5,0,0,1,5,5v8a5,5,0,0,1,-5,5h-60a5,5,0,0,1,-5,-5v-8a5,5,0,0,1,5,-5z"></path><g id="node_text14" fill="black"><text id="kity_text_161" text-rendering="inherit" font-size="12" dy=".8em" y="470.5" x="81.5">一致性困难</text></g></g><g id="minder_node17"><g id="node_expander25" style="cursor: pointer;"><path id="kity_path_431" fill="white" stroke="gray" d="M438.5,59.5A6,6,0,1,1,426.5,59.5A6,6,0,1,1,438.5,59.5"></path><path id="kity_path_432" fill="none" stroke="gray" d="M428,59.5L437,59.5"></path></g><path id="node_outline26" fill="rgb(238, 246, 238)" stroke="rgb(115, 191, 118)" d="M381.5,66.5h102a3,3,0,0,1,3,3v23a3,3,0,0,1,-3,3h-102a3,3,0,0,1,-3,-3v-23a3,3,0,0,1,3,-3z" stroke-width="1"></path><g id="node_text26" fill="black"><text id="kity_text_185" text-rendering="inherit" font-size="14" dy=".8em" y="73.5" x="398.5">1.2概念</text></g><g id="kity_g_260" style="cursor: pointer;"><path id="kity_path_261" fill="none" stroke="none" d="M453,72h12a2,2,0,0,1,2,2v13a2,2,0,0,1,-2,2h-12a2,2,0,0,1,-2,-2v-13a2,2,0,0,1,2,-2z"></path><path id="kity_path_262" fill="black" stroke="none" d="M462,83H456V82h6L462,83L462,83zM462,81H456V80h6V81zM462,79H456V78h6V79zM461.5,85H455V76h8v7.5M462,86l2,-2V75H454v11"></path></g></g><g id="minder_node18"><g id="node_expander18" style="cursor: pointer;"><path id="kity_path_410" fill="white" stroke="gray" d="M406.5,116.5A6,6,0,1,1,394.5,116.5A6,6,0,1,1,406.5,116.5"></path><path id="kity_path_411" fill="none" stroke="gray" d="M396,116.5L405,116.5"></path></g><path id="node_outline19" fill="none" stroke="none" d="M411.5,107.5h52a5,5,0,0,1,5,5v8a5,5,0,0,1,-5,5h-52a5,5,0,0,1,-5,-5v-8a5,5,0,0,1,5,-5z"></path><g id="node_text19" fill="black"><text id="kity_text_171" text-rendering="inherit" font-size="12" dy=".8em" y="110.5" x="411.5">case工具</text></g></g><g id="minder_node19"><g id="node_expander16" display="none" style="cursor: pointer;"><path id="kity_path_404" fill="white" stroke="gray" d="M434.5,142.5A6,6,0,1,1,422.5,142.5A6,6,0,1,1,434.5,142.5"></path><path id="kity_path_405" fill="none" stroke="gray"></path></g><path id="node_outline17" fill="none" stroke="none" d="M439.5,133.5h108a5,5,0,0,1,5,5v8a5,5,0,0,1,-5,5h-108a5,5,0,0,1,-5,-5v-8a5,5,0,0,1,5,-5z"></path><g id="node_text17" fill="black"><text id="kity_text_167" text-rendering="inherit" font-size="12" dy=".8em" y="136.5" x="439.5">计算机辅助软件工程</text></g></g><g id="minder_node20"><g id="node_expander17" display="none" style="cursor: pointer;"><path id="kity_path_407" fill="white" stroke="gray" d="M434.5,168.5A6,6,0,1,1,422.5,168.5A6,6,0,1,1,434.5,168.5"></path><path id="kity_path_408" fill="none" stroke="gray"></path></g><path id="node_outline18" fill="none" stroke="none" d="M439.5,159.5h108a5,5,0,0,1,5,5v8a5,5,0,0,1,-5,5h-108a5,5,0,0,1,-5,-5v-8a5,5,0,0,1,5,-5z"></path><g id="node_text18" fill="black"><text id="kity_text_169" text-rendering="inherit" font-size="12" dy=".8em" y="162.5" x="439.5">计算机辅助系统工程</text></g></g><g id="minder_node21"><g id="node_expander19" display="none" style="cursor: pointer;"><path id="kity_path_413" fill="white" stroke="gray" d="M406.5,197A6,6,0,1,1,394.5,197A6,6,0,1,1,406.5,197"></path><path id="kity_path_414" fill="none" stroke="gray"></path></g><path id="node_outline20" fill="none" stroke="none" d="M411.5,185.5h45a5,5,0,0,1,5,5v13a5,5,0,0,1,-5,5h-45a5,5,0,0,1,-5,-5v-13a5,5,0,0,1,5,-5z"></path><g id="node_text20" fill="black"><text id="kity_text_173" text-rendering="inherit" font-size="12" dy=".8em" y="190.5" x="411.5">地位</text></g><g id="kity_g_257" style="cursor: pointer;"><path id="kity_path_258" fill="none" stroke="none" d="M443,188h12a2,2,0,0,1,2,2v13a2,2,0,0,1,-2,2h-12a2,2,0,0,1,-2,-2v-13a2,2,0,0,1,2,-2z"></path><path id="kity_path_259" fill="black" stroke="none" d="M452,199H446V198h6L452,199L452,199zM452,197H446V196h6V197zM452,195H446V194h6V195zM451.5,201H445V192h8v7.5M452,202l2,-2V191H444v11"></path></g></g><g id="minder_node22"><g id="node_expander24" style="cursor: pointer;"><path id="kity_path_428" fill="white" stroke="gray" d="M406.5,225.5A6,6,0,1,1,394.5,225.5A6,6,0,1,1,406.5,225.5"></path><path id="kity_path_429" fill="none" stroke="gray" d="M396,225.5L405,225.5"></path></g><path id="node_outline25" fill="none" stroke="none" d="M411.5,216.5h24a5,5,0,0,1,5,5v8a5,5,0,0,1,-5,5h-24a5,5,0,0,1,-5,-5v-8a5,5,0,0,1,5,-5z"></path><g id="node_text25" fill="black"><text id="kity_text_183" text-rendering="inherit" font-size="12" dy=".8em" y="219.5" x="411.5">作用</text></g></g><g id="minder_node23"><g id="node_expander20" display="none" style="cursor: pointer;"><path id="kity_path_416" fill="white" stroke="gray" d="M434.5,251.5A6,6,0,1,1,422.5,251.5A6,6,0,1,1,434.5,251.5"></path><path id="kity_path_417" fill="none" stroke="gray"></path></g><path id="node_outline21" fill="none" stroke="none" d="M439.5,242.5h72a5,5,0,0,1,5,5v8a5,5,0,0,1,-5,5h-72a5,5,0,0,1,-5,-5v-8a5,5,0,0,1,5,-5z"></path><g id="node_text21" fill="black"><text id="kity_text_175" text-rendering="inherit" font-size="12" dy=".8em" y="245.5" x="439.5">提升开发效率</text></g></g><g id="minder_node24"><g id="node_expander21" display="none" style="cursor: pointer;"><path id="kity_path_419" fill="white" stroke="gray" d="M434.5,277.5A6,6,0,1,1,422.5,277.5A6,6,0,1,1,434.5,277.5"></path><path id="kity_path_420" fill="none" stroke="gray"></path></g><path id="node_outline22" fill="none" stroke="none" d="M439.5,268.5h24a5,5,0,0,1,5,5v8a5,5,0,0,1,-5,5h-24a5,5,0,0,1,-5,-5v-8a5,5,0,0,1,5,-5z"></path><g id="node_text22" fill="black"><text id="kity_text_177" text-rendering="inherit" font-size="12" dy=".8em" y="271.5" x="439.5">质量</text></g></g><g id="minder_node25"><g id="node_expander22" display="none" style="cursor: pointer;"><path id="kity_path_422" fill="white" stroke="gray" d="M434.5,303.5A6,6,0,1,1,422.5,303.5A6,6,0,1,1,434.5,303.5"></path><path id="kity_path_423" fill="none" stroke="gray"></path></g><path id="node_outline23" fill="none" stroke="none" d="M439.5,294.5h24a5,5,0,0,1,5,5v8a5,5,0,0,1,-5,5h-24a5,5,0,0,1,-5,-5v-8a5,5,0,0,1,5,-5z"></path><g id="node_text23" fill="black"><text id="kity_text_179" text-rendering="inherit" font-size="12" dy=".8em" y="297.5" x="439.5">成本</text></g></g><g id="minder_node26"><g id="node_expander23" display="none" style="cursor: pointer;"><path id="kity_path_425" fill="white" stroke="gray" d="M434.5,329.5A6,6,0,1,1,422.5,329.5A6,6,0,1,1,434.5,329.5"></path><path id="kity_path_426" fill="none" stroke="gray"></path></g><path id="node_outline24" fill="none" stroke="none" d="M439.5,320.5h24a5,5,0,0,1,5,5v8a5,5,0,0,1,-5,5h-24a5,5,0,0,1,-5,-5v-8a5,5,0,0,1,5,-5z"></path><g id="node_text24" fill="black"><text id="kity_text_181" text-rendering="inherit" font-size="12" dy=".8em" y="323.5" x="439.5">规范</text></g></g><g id="minder_node27"><g id="node_expander42" style="cursor: pointer;"><path id="kity_path_482" fill="white" stroke="gray" d="M637.5,59.5A6,6,0,1,1,625.5,59.5A6,6,0,1,1,637.5,59.5"></path><path id="kity_path_483" fill="none" stroke="gray" d="M627,59.5L636,59.5"></path></g><path id="node_outline43" fill="rgb(238, 246, 238)" stroke="rgb(115, 191, 118)" d="M571.5,66.5h120a3,3,0,0,1,3,3v20a3,3,0,0,1,-3,3h-120a3,3,0,0,1,-3,-3v-20a3,3,0,0,1,3,-3z" stroke-width="1"></path><g id="node_text43" fill="black"><text id="kity_text_219" text-rendering="inherit" font-size="14" dy=".8em" y="72.5" x="588.5">1.3功能&amp;性能</text></g></g><g id="minder_node28"><g id="node_expander30" style="cursor: pointer;"><path id="kity_path_446" fill="white" stroke="gray" d="M596.5,113.5A6,6,0,1,1,584.5,113.5A6,6,0,1,1,596.5,113.5"></path><path id="kity_path_447" fill="none" stroke="gray" d="M586,113.5L595,113.5"></path></g><path id="node_outline31" fill="none" stroke="none" d="M601.5,104.5h24a5,5,0,0,1,5,5v8a5,5,0,0,1,-5,5h-24a5,5,0,0,1,-5,-5v-8a5,5,0,0,1,5,-5z"></path><g id="node_text31" fill="black"><text id="kity_text_195" text-rendering="inherit" font-size="12" dy=".8em" y="107.5" x="601.5">过程</text></g></g><g id="minder_node29"><g id="node_expander26" display="none" style="cursor: pointer;"><path id="kity_path_434" fill="white" stroke="gray" d="M624.5,139.5A6,6,0,1,1,612.5,139.5A6,6,0,1,1,624.5,139.5"></path><path id="kity_path_435" fill="none" stroke="gray"></path></g><path id="node_outline27" fill="none" stroke="none" d="M629.5,130.5h120a5,5,0,0,1,5,5v8a5,5,0,0,1,-5,5h-120a5,5,0,0,1,-5,-5v-8a5,5,0,0,1,5,-5z"></path><g id="node_text27" fill="black"><text id="kity_text_187" text-rendering="inherit" font-size="12" dy=".8em" y="133.5" x="629.5">需求提出，功能说明书</text></g></g><g id="minder_node30"><g id="node_expander27" display="none" style="cursor: pointer;"><path id="kity_path_437" fill="white" stroke="gray" d="M624.5,168A6,6,0,1,1,612.5,168A6,6,0,1,1,624.5,168"></path><path id="kity_path_438" fill="none" stroke="gray"></path></g><path id="node_outline28" fill="none" stroke="none" d="M629.5,156.5h69a5,5,0,0,1,5,5v13a5,5,0,0,1,-5,5h-69a5,5,0,0,1,-5,-5v-13a5,5,0,0,1,5,-5z"></path><g id="node_text28" fill="black"><text id="kity_text_189" text-rendering="inherit" font-size="12" dy=".8em" y="161.5" x="629.5">总体设计</text></g><g id="kity_g_263" style="cursor: pointer;"><path id="kity_path_264" fill="none" stroke="none" d="M685,159h12a2,2,0,0,1,2,2v13a2,2,0,0,1,-2,2h-12a2,2,0,0,1,-2,-2v-13a2,2,0,0,1,2,-2z"></path><path id="kity_path_265" fill="black" stroke="none" d="M694,170H688V169h6L694,170L694,170zM694,168H688V167h6V168zM694,166H688V165h6V166zM693.5,172H687V163h8v7.5M694,173l2,-2V162H686v11"></path></g></g><g id="minder_node31"><g id="node_expander28" display="none" style="cursor: pointer;"><path id="kity_path_440" fill="white" stroke="gray" d="M624.5,199A6,6,0,1,1,612.5,199A6,6,0,1,1,624.5,199"></path><path id="kity_path_441" fill="none" stroke="gray"></path></g><path id="node_outline29" fill="none" stroke="none" d="M629.5,187.5h69a5,5,0,0,1,5,5v13a5,5,0,0,1,-5,5h-69a5,5,0,0,1,-5,-5v-13a5,5,0,0,1,5,-5z"></path><g id="node_text29" fill="black"><text id="kity_text_191" text-rendering="inherit" font-size="12" dy=".8em" y="192.5" x="629.5">实现阶段</text></g><g id="kity_g_266" style="cursor: pointer;"><path id="kity_path_267" fill="none" stroke="none" d="M685,190h12a2,2,0,0,1,2,2v13a2,2,0,0,1,-2,2h-12a2,2,0,0,1,-2,-2v-13a2,2,0,0,1,2,-2z"></path><path id="kity_path_268" fill="black" stroke="none" d="M694,201H688V200h6L694,201L694,201zM694,199H688V198h6V199zM694,197H688V196h6V197zM693.5,203H687V194h8v7.5M694,204l2,-2V193H686v11"></path></g></g><g id="minder_node32"><g id="node_expander29" display="none" style="cursor: pointer;"><path id="kity_path_443" fill="white" stroke="gray" d="M624.5,230A6,6,0,1,1,612.5,230A6,6,0,1,1,624.5,230"></path><path id="kity_path_444" fill="none" stroke="gray"></path></g><path id="node_outline30" fill="none" stroke="none" d="M629.5,218.5h105a5,5,0,0,1,5,5v13a5,5,0,0,1,-5,5h-105a5,5,0,0,1,-5,-5v-13a5,5,0,0,1,5,-5z"></path><g id="node_text30" fill="black"><text id="kity_text_193" text-rendering="inherit" font-size="12" dy=".8em" y="223.5" x="629.5">测试与联调阶段</text></g><g id="kity_g_269" style="cursor: pointer;"><path id="kity_path_270" fill="none" stroke="none" d="M721,221h12a2,2,0,0,1,2,2v13a2,2,0,0,1,-2,2h-12a2,2,0,0,1,-2,-2v-13a2,2,0,0,1,2,-2z"></path><path id="kity_path_271" fill="black" stroke="none" d="M730,232H724V231h6L730,232L730,232zM730,230H724V229h6V230zM730,228H724V227h6V228zM729.5,234H723V225h8v7.5M730,235l2,-2V224H722v11"></path></g></g><g id="minder_node33"><g id="node_expander35" style="cursor: pointer;"><path id="kity_path_461" fill="white" stroke="gray" d="M596.5,258.5A6,6,0,1,1,584.5,258.5A6,6,0,1,1,596.5,258.5"></path><path id="kity_path_462" fill="none" stroke="gray" d="M586,258.5L595,258.5"></path></g><path id="node_outline36" fill="none" stroke="none" d="M601.5,249.5h24a5,5,0,0,1,5,5v8a5,5,0,0,1,-5,5h-24a5,5,0,0,1,-5,-5v-8a5,5,0,0,1,5,-5z"></path><g id="node_text36" fill="black"><text id="kity_text_205" text-rendering="inherit" font-size="12" dy=".8em" y="252.5" x="601.5">功能</text></g></g><g id="minder_node34"><g id="node_expander31" display="none" style="cursor: pointer;"><path id="kity_path_449" fill="white" stroke="gray" d="M624.5,287A6,6,0,1,1,612.5,287A6,6,0,1,1,624.5,287"></path><path id="kity_path_450" fill="none" stroke="gray"></path></g><path id="node_outline32" fill="none" stroke="none" d="M629.5,275.5h129a5,5,0,0,1,5,5v13a5,5,0,0,1,-5,5h-129a5,5,0,0,1,-5,-5v-13a5,5,0,0,1,5,-5z"></path><g id="node_text32" fill="black"><text id="kity_text_197" text-rendering="inherit" font-size="12" dy=".8em" y="280.5" x="629.5">认识与描述客观系统</text></g><g id="kity_g_272" style="cursor: pointer;"><path id="kity_path_273" fill="none" stroke="none" d="M745,278h12a2,2,0,0,1,2,2v13a2,2,0,0,1,-2,2h-12a2,2,0,0,1,-2,-2v-13a2,2,0,0,1,2,-2z"></path><path id="kity_path_274" fill="black" stroke="none" d="M754,289H748V288h6L754,289L754,289zM754,287H748V286h6V287zM754,285H748V284h6V285zM753.5,291H747V282h8v7.5M754,292l2,-2V281H746v11"></path></g></g><g id="minder_node35"><g id="node_expander32" display="none" style="cursor: pointer;"><path id="kity_path_452" fill="white" stroke="gray" d="M624.5,315.5A6,6,0,1,1,612.5,315.5A6,6,0,1,1,624.5,315.5"></path><path id="kity_path_453" fill="none" stroke="gray"></path></g><path id="node_outline33" fill="none" stroke="none" d="M629.5,306.5h156a5,5,0,0,1,5,5v8a5,5,0,0,1,-5,5h-156a5,5,0,0,1,-5,-5v-8a5,5,0,0,1,5,-5z"></path><g id="node_text33" fill="black"><text id="kity_text_199" text-rendering="inherit" font-size="12" dy=".8em" y="309.5" x="629.5">存储与管理开发过程中的信息</text></g></g><g id="minder_node36"><g id="node_expander33" display="none" style="cursor: pointer;"><path id="kity_path_455" fill="white" stroke="gray" d="M624.5,344A6,6,0,1,1,612.5,344A6,6,0,1,1,624.5,344"></path><path id="kity_path_456" fill="none" stroke="gray"></path></g><path id="node_outline34" fill="none" stroke="none" d="M629.5,332.5h141a5,5,0,0,1,5,5v13a5,5,0,0,1,-5,5h-141a5,5,0,0,1,-5,-5v-13a5,5,0,0,1,5,-5z"></path><g id="node_text34" fill="black"><text id="kity_text_201" text-rendering="inherit" font-size="12" dy=".8em" y="337.5" x="629.5">代码编写与文档的生成</text></g><g id="kity_g_275" style="cursor: pointer;"><path id="kity_path_276" fill="none" stroke="none" d="M757,335h12a2,2,0,0,1,2,2v13a2,2,0,0,1,-2,2h-12a2,2,0,0,1,-2,-2v-13a2,2,0,0,1,2,-2z"></path><path id="kity_path_277" fill="black" stroke="none" d="M766,346H760V345h6L766,346L766,346zM766,344H760V343h6V344zM766,342H760V341h6V342zM765.5,348H759V339h8v7.5M766,349l2,-2V338H758v11"></path></g></g><g id="minder_node37"><g id="node_expander34" display="none" style="cursor: pointer;"><path id="kity_path_458" fill="white" stroke="gray" d="M624.5,375A6,6,0,1,1,612.5,375A6,6,0,1,1,624.5,375"></path><path id="kity_path_459" fill="none" stroke="gray"></path></g><path id="node_outline35" fill="none" stroke="none" d="M629.5,363.5h93a5,5,0,0,1,5,5v13a5,5,0,0,1,-5,5h-93a5,5,0,0,1,-5,-5v-13a5,5,0,0,1,5,-5z"></path><g id="node_text35" fill="black"><text id="kity_text_203" text-rendering="inherit" font-size="12" dy=".8em" y="368.5" x="629.5">软件项目管理</text></g><g id="kity_g_278" style="cursor: pointer;"><path id="kity_path_279" fill="none" stroke="none" d="M709,366h12a2,2,0,0,1,2,2v13a2,2,0,0,1,-2,2h-12a2,2,0,0,1,-2,-2v-13a2,2,0,0,1,2,-2z"></path><path id="kity_path_280" fill="black" stroke="none" d="M718,377H712V376h6L718,377L718,377zM718,375H712V374h6V375zM718,373H712V372h6V373zM717.5,379H711V370h8v7.5M718,380l2,-2V369H710v11"></path></g></g><g id="minder_node38"><g id="node_expander41" style="cursor: pointer;"><path id="kity_path_479" fill="white" stroke="gray" d="M596.5,403.5A6,6,0,1,1,584.5,403.5A6,6,0,1,1,596.5,403.5"></path><path id="kity_path_480" fill="none" stroke="gray" d="M586,403.5L595,403.5"></path></g><path id="node_outline42" fill="none" stroke="none" d="M601.5,394.5h24a5,5,0,0,1,5,5v8a5,5,0,0,1,-5,5h-24a5,5,0,0,1,-5,-5v-8a5,5,0,0,1,5,-5z"></path><g id="node_text42" fill="black"><text id="kity_text_217" text-rendering="inherit" font-size="12" dy=".8em" y="397.5" x="601.5">性能</text></g></g><g id="minder_node39"><g id="node_expander36" display="none" style="cursor: pointer;"><path id="kity_path_464" fill="white" stroke="gray" d="M624.5,429.5A6,6,0,1,1,612.5,429.5A6,6,0,1,1,624.5,429.5"></path><path id="kity_path_465" fill="none" stroke="gray"></path></g><path id="node_outline37" fill="none" stroke="none" d="M629.5,420.5h108a5,5,0,0,1,5,5v8a5,5,0,0,1,-5,5h-108a5,5,0,0,1,-5,-5v-8a5,5,0,0,1,5,-5z"></path><g id="node_text37" fill="black"><text id="kity_text_207" text-rendering="inherit" font-size="12" dy=".8em" y="423.5" x="629.5">表达能与与描述能力</text></g></g><g id="minder_node40"><g id="node_expander37" display="none" style="cursor: pointer;"><path id="kity_path_467" fill="white" stroke="gray" d="M624.5,455.5A6,6,0,1,1,612.5,455.5A6,6,0,1,1,624.5,455.5"></path><path id="kity_path_468" fill="none" stroke="gray"></path></g><path id="node_outline38" fill="none" stroke="none" d="M629.5,446.5h96a5,5,0,0,1,5,5v8a5,5,0,0,1,-5,5h-96a5,5,0,0,1,-5,-5v-8a5,5,0,0,1,5,-5z"></path><g id="node_text38" fill="black"><text id="kity_text_209" text-rendering="inherit" font-size="12" dy=".8em" y="449.5" x="629.5">方便程度、易用性</text></g></g><g id="minder_node41"><g id="node_expander38" display="none" style="cursor: pointer;"><path id="kity_path_470" fill="white" stroke="gray" d="M624.5,481.5A6,6,0,1,1,612.5,481.5A6,6,0,1,1,624.5,481.5"></path><path id="kity_path_471" fill="none" stroke="gray"></path></g><path id="node_outline39" fill="none" stroke="none" d="M629.5,472.5h84a5,5,0,0,1,5,5v8a5,5,0,0,1,-5,5h-84a5,5,0,0,1,-5,-5v-8a5,5,0,0,1,5,-5z"></path><g id="node_text39" fill="black"><text id="kity_text_211" text-rendering="inherit" font-size="12" dy=".8em" y="475.5" x="629.5">对软、硬件要求</text></g></g><g id="minder_node42"><g id="node_expander39" display="none" style="cursor: pointer;"><path id="kity_path_473" fill="white" stroke="gray" d="M624.5,507.5A6,6,0,1,1,612.5,507.5A6,6,0,1,1,624.5,507.5"></path><path id="kity_path_474" fill="none" stroke="gray"></path></g><path id="node_outline40" fill="none" stroke="none" d="M629.5,498.5h36a5,5,0,0,1,5,5v8a5,5,0,0,1,-5,5h-36a5,5,0,0,1,-5,-5v-8a5,5,0,0,1,5,-5z"></path><g id="node_text40" fill="black"><text id="kity_text_213" text-rendering="inherit" font-size="12" dy=".8em" y="501.5" x="629.5">稳定性</text></g></g><g id="minder_node43"><g id="node_expander40" display="none" style="cursor: pointer;"><path id="kity_path_476" fill="white" stroke="gray" d="M624.5,533.5A6,6,0,1,1,612.5,533.5A6,6,0,1,1,624.5,533.5"></path><path id="kity_path_477" fill="none" stroke="gray"></path></g><path id="node_outline41" fill="none" stroke="none" d="M629.5,524.5h108a5,5,0,0,1,5,5v8a5,5,0,0,1,-5,5h-108a5,5,0,0,1,-5,-5v-8a5,5,0,0,1,5,-5z"></path><g id="node_text41" fill="black"><text id="kity_text_215" text-rendering="inherit" font-size="12" dy=".8em" y="527.5" x="629.5">保持信息一致的能力</text></g></g><g id="minder_node44"><g id="node_expander53" style="cursor: pointer;"><path id="kity_path_515" fill="white" stroke="gray" d="M858,59.5A6,6,0,1,1,846,59.5A6,6,0,1,1,858,59.5"></path><path id="kity_path_516" fill="none" stroke="gray" d="M847.5,59.5L856.5,59.5"></path></g><path id="node_outline54" fill="rgb(238, 246, 238)" stroke="rgb(115, 191, 118)" d="M809.5,66.5h85a3,3,0,0,1,3,3v20a3,3,0,0,1,-3,3h-85a3,3,0,0,1,-3,-3v-20a3,3,0,0,1,3,-3z" stroke-width="1"></path><g id="node_text54" fill="black"><text id="kity_text_241" text-rendering="inherit" font-size="14" dy=".8em" y="72.5" x="826.5">1.4 类别</text></g></g><g id="minder_node45"><g id="node_expander46" style="cursor: pointer;"><path id="kity_path_494" fill="white" stroke="gray" d="M834.5,116A6,6,0,1,1,822.5,116A6,6,0,1,1,834.5,116"></path><path id="kity_path_495" fill="none" stroke="gray" d="M824,116L833,116"></path></g><path id="node_outline47" fill="none" stroke="none" d="M839.5,104.5h81a5,5,0,0,1,5,5v13a5,5,0,0,1,-5,5h-81a5,5,0,0,1,-5,-5v-13a5,5,0,0,1,5,-5z"></path><g id="node_text47" fill="black"><text id="kity_text_227" text-rendering="inherit" font-size="12" dy=".8em" y="109.5" x="839.5">按工作阶段</text></g><g id="kity_g_290" style="cursor: pointer;"><path id="kity_path_291" fill="none" stroke="none" d="M907,107h12a2,2,0,0,1,2,2v13a2,2,0,0,1,-2,2h-12a2,2,0,0,1,-2,-2v-13a2,2,0,0,1,2,-2z"></path><path id="kity_path_292" fill="black" stroke="none" d="M916,118H910V117h6L916,118L916,118zM916,116H910V115h6V116zM916,114H910V113h6V114zM915.5,120H909V111h8v7.5M916,121l2,-2V110H908v11"></path></g></g><g id="minder_node46"><g id="node_expander43" display="none" style="cursor: pointer;"><path id="kity_path_485" fill="white" stroke="gray" d="M862.5,147A6,6,0,1,1,850.5,147A6,6,0,1,1,862.5,147"></path><path id="kity_path_486" fill="none" stroke="gray"></path></g><path id="node_outline44" fill="none" stroke="none" d="M867.5,135.5h69a5,5,0,0,1,5,5v13a5,5,0,0,1,-5,5h-69a5,5,0,0,1,-5,-5v-13a5,5,0,0,1,5,-5z"></path><g id="node_text44" fill="black"><text id="kity_text_221" text-rendering="inherit" font-size="12" dy=".8em" y="140.5" x="867.5">分析工具</text></g><g id="kity_g_281" style="cursor: pointer;"><path id="kity_path_282" fill="none" stroke="none" d="M923,138h12a2,2,0,0,1,2,2v13a2,2,0,0,1,-2,2h-12a2,2,0,0,1,-2,-2v-13a2,2,0,0,1,2,-2z"></path><path id="kity_path_283" fill="black" stroke="none" d="M932,149H926V148h6L932,149L932,149zM932,147H926V146h6V147zM932,145H926V144h6V145zM931.5,151H925V142h8v7.5M932,152l2,-2V141H924v11"></path></g></g><g id="minder_node47"><g id="node_expander44" display="none" style="cursor: pointer;"><path id="kity_path_488" fill="white" stroke="gray" d="M862.5,178A6,6,0,1,1,850.5,178A6,6,0,1,1,862.5,178"></path><path id="kity_path_489" fill="none" stroke="gray"></path></g><path id="node_outline45" fill="none" stroke="none" d="M867.5,166.5h69a5,5,0,0,1,5,5v13a5,5,0,0,1,-5,5h-69a5,5,0,0,1,-5,-5v-13a5,5,0,0,1,5,-5z"></path><g id="node_text45" fill="black"><text id="kity_text_223" text-rendering="inherit" font-size="12" dy=".8em" y="171.5" x="867.5">计划工具</text></g><g id="kity_g_284" style="cursor: pointer;"><path id="kity_path_285" fill="none" stroke="none" d="M923,169h12a2,2,0,0,1,2,2v13a2,2,0,0,1,-2,2h-12a2,2,0,0,1,-2,-2v-13a2,2,0,0,1,2,-2z"></path><path id="kity_path_286" fill="black" stroke="none" d="M932,180H926V179h6L932,180L932,180zM932,178H926V177h6V178zM932,176H926V175h6V176zM931.5,182H925V173h8v7.5M932,183l2,-2V172H924v11"></path></g></g><g id="minder_node48"><g id="node_expander45" display="none" style="cursor: pointer;"><path id="kity_path_491" fill="white" stroke="gray" d="M862.5,209A6,6,0,1,1,850.5,209A6,6,0,1,1,862.5,209"></path><path id="kity_path_492" fill="none" stroke="gray"></path></g><path id="node_outline46" fill="none" stroke="none" d="M867.5,197.5h69a5,5,0,0,1,5,5v13a5,5,0,0,1,-5,5h-69a5,5,0,0,1,-5,-5v-13a5,5,0,0,1,5,-5z"></path><g id="node_text46" fill="black"><text id="kity_text_225" text-rendering="inherit" font-size="12" dy=".8em" y="202.5" x="867.5">设计工具</text></g><g id="kity_g_287" style="cursor: pointer;"><path id="kity_path_288" fill="none" stroke="none" d="M923,200h12a2,2,0,0,1,2,2v13a2,2,0,0,1,-2,2h-12a2,2,0,0,1,-2,-2v-13a2,2,0,0,1,2,-2z"></path><path id="kity_path_289" fill="black" stroke="none" d="M932,211H926V210h6L932,211L932,211zM932,209H926V208h6V209zM932,207H926V206h6V207zM931.5,213H925V204h8v7.5M932,214l2,-2V203H924v11"></path></g></g><g id="minder_node49"><g id="node_expander49" style="cursor: pointer;"><path id="kity_path_503" fill="white" stroke="gray" d="M834.5,237.5A6,6,0,1,1,822.5,237.5A6,6,0,1,1,834.5,237.5"></path><path id="kity_path_504" fill="none" stroke="gray" d="M824,237.5L833,237.5"></path></g><path id="node_outline50" fill="none" stroke="none" d="M839.5,228.5h36a5,5,0,0,1,5,5v8a5,5,0,0,1,-5,5h-36a5,5,0,0,1,-5,-5v-8a5,5,0,0,1,5,-5z"></path><g id="node_text50" fill="black"><text id="kity_text_233" text-rendering="inherit" font-size="12" dy=".8em" y="231.5" x="839.5">集成度</text></g></g><g id="minder_node50"><g id="node_expander47" display="none" style="cursor: pointer;"><path id="kity_path_497" fill="white" stroke="gray" d="M862.5,266A6,6,0,1,1,850.5,266A6,6,0,1,1,862.5,266"></path><path id="kity_path_498" fill="none" stroke="gray"></path></g><path id="node_outline48" fill="none" stroke="none" d="M867.5,254.5h57a5,5,0,0,1,5,5v13a5,5,0,0,1,-5,5h-57a5,5,0,0,1,-5,-5v-13a5,5,0,0,1,5,-5z"></path><g id="node_text48" fill="black"><text id="kity_text_229" text-rendering="inherit" font-size="12" dy=".8em" y="259.5" x="867.5">单一的</text></g><g id="kity_g_293" style="cursor: pointer;"><path id="kity_path_294" fill="none" stroke="none" d="M911,257h12a2,2,0,0,1,2,2v13a2,2,0,0,1,-2,2h-12a2,2,0,0,1,-2,-2v-13a2,2,0,0,1,2,-2z"></path><path id="kity_path_295" fill="black" stroke="none" d="M920,268H914V267h6L920,268L920,268zM920,266H914V265h6V266zM920,264H914V263h6V264zM919.5,270H913V261h8v7.5M920,271l2,-2V260H912v11"></path></g></g><g id="minder_node51"><g id="node_expander48" display="none" style="cursor: pointer;"><path id="kity_path_500" fill="white" stroke="gray" d="M862.5,297A6,6,0,1,1,850.5,297A6,6,0,1,1,862.5,297"></path><path id="kity_path_501" fill="none" stroke="gray"></path></g><path id="node_outline49" fill="none" stroke="none" d="M867.5,285.5h45a5,5,0,0,1,5,5v13a5,5,0,0,1,-5,5h-45a5,5,0,0,1,-5,-5v-13a5,5,0,0,1,5,-5z"></path><g id="node_text49" fill="black"><text id="kity_text_231" text-rendering="inherit" font-size="12" dy=".8em" y="290.5" x="867.5">集成</text></g><g id="kity_g_296" style="cursor: pointer;"><path id="kity_path_297" fill="none" stroke="none" d="M899,288h12a2,2,0,0,1,2,2v13a2,2,0,0,1,-2,2h-12a2,2,0,0,1,-2,-2v-13a2,2,0,0,1,2,-2z"></path><path id="kity_path_298" fill="black" stroke="none" d="M908,299H902V298h6L908,299L908,299zM908,297H902V296h6V297zM908,295H902V294h6V295zM907.5,301H901V292h8v7.5M908,302l2,-2V291H900v11"></path></g></g><g id="minder_node52"><g id="node_expander52" style="cursor: pointer;"><path id="kity_path_512" fill="white" stroke="gray" d="M834.5,325.5A6,6,0,1,1,822.5,325.5A6,6,0,1,1,834.5,325.5"></path><path id="kity_path_513" fill="none" stroke="gray" d="M824,325.5L833,325.5"></path></g><path id="node_outline53" fill="none" stroke="none" d="M839.5,316.5h96a5,5,0,0,1,5,5v8a5,5,0,0,1,-5,5h-96a5,5,0,0,1,-5,-5v-8a5,5,0,0,1,5,-5z"></path><g id="node_text53" fill="black"><text id="kity_text_239" text-rendering="inherit" font-size="12" dy=".8em" y="319.5" x="839.5">对机器或软件依赖</text></g></g><g id="minder_node53"><g id="node_expander50" display="none" style="cursor: pointer;"><path id="kity_path_506" fill="white" stroke="gray" d="M862.5,354A6,6,0,1,1,850.5,354A6,6,0,1,1,862.5,354"></path><path id="kity_path_507" fill="none" stroke="gray"></path></g><path id="node_outline51" fill="none" stroke="none" d="M867.5,342.5h45a5,5,0,0,1,5,5v13a5,5,0,0,1,-5,5h-45a5,5,0,0,1,-5,-5v-13a5,5,0,0,1,5,-5z"></path><g id="node_text51" fill="black"><text id="kity_text_235" text-rendering="inherit" font-size="12" dy=".8em" y="347.5" x="867.5">独立</text></g><g id="kity_g_299" style="cursor: pointer;"><path id="kity_path_300" fill="none" stroke="none" d="M899,345h12a2,2,0,0,1,2,2v13a2,2,0,0,1,-2,2h-12a2,2,0,0,1,-2,-2v-13a2,2,0,0,1,2,-2z"></path><path id="kity_path_301" fill="black" stroke="none" d="M908,356H902V355h6L908,356L908,356zM908,354H902V353h6V354zM908,352H902V351h6V352zM907.5,358H901V349h8v7.5M908,359l2,-2V348H900v11"></path></g></g><g id="minder_node54"><g id="node_expander51" display="none" style="cursor: pointer;"><path id="kity_path_509" fill="white" stroke="gray" d="M862.5,385A6,6,0,1,1,850.5,385A6,6,0,1,1,862.5,385"></path><path id="kity_path_510" fill="none" stroke="gray"></path></g><path id="node_outline52" fill="none" stroke="none" d="M867.5,373.5h57a5,5,0,0,1,5,5v13a5,5,0,0,1,-5,5h-57a5,5,0,0,1,-5,-5v-13a5,5,0,0,1,5,-5z"></path><g id="node_text52" fill="black"><text id="kity_text_237" text-rendering="inherit" font-size="12" dy=".8em" y="378.5" x="867.5">非独立</text></g><g id="kity_g_302" style="cursor: pointer;"><path id="kity_path_303" fill="none" stroke="none" d="M911,376h12a2,2,0,0,1,2,2v13a2,2,0,0,1,-2,2h-12a2,2,0,0,1,-2,-2v-13a2,2,0,0,1,2,-2z"></path><path id="kity_path_304" fill="black" stroke="none" d="M920,387H914V386h6L920,387L920,387zM920,385H914V384h6V385zM920,383H914V382h6V383zM919.5,389H913V380h8v7.5M920,390l2,-2V379H912v11"></path></g></g></g></g></svg>